<svg xmlns="http://www.w3.org/2000/svg" xmlns:xlink="http://www.w3.org/1999/xlink" width="500" zoomAndPan="magnify" viewBox="0 0 375 374.999991" height="500" preserveAspectRatio="xMidYMid meet" version="1.0"><defs><g/><linearGradient x1="0" gradientTransform="matrix(0.75, 0, 0, 0.75, 0.0000045, 0)" y1="0" x2="499.999979" gradientUnits="userSpaceOnUse" y2="499.999979" id="7dd9fea1da"><stop stop-opacity="1" stop-color="rgb(39.219666%, 39.219666%, 39.219666%)" offset="0"/><stop stop-opacity="1" stop-color="rgb(38.912964%, 38.912964%, 38.912964%)" offset="0.00390625"/><stop stop-opacity="1" stop-color="rgb(38.606262%, 38.606262%, 38.606262%)" offset="0.0078125"/><stop stop-opacity="1" stop-color="rgb(38.299561%, 38.299561%, 38.299561%)" offset="0.0117187"/><stop stop-opacity="1" stop-color="rgb(37.992859%, 37.992859%, 37.992859%)" offset="0.015625"/><stop stop-opacity="1" stop-color="rgb(37.686157%, 37.686157%, 37.686157%)" offset="0.0195312"/><stop stop-opacity="1" stop-color="rgb(37.380981%, 37.380981%, 37.380981%)" offset="0.0234375"/><stop stop-opacity="1" stop-color="rgb(37.07428%, 37.07428%, 37.07428%)" offset="0.0273438"/><stop stop-opacity="1" stop-color="rgb(36.767578%, 36.767578%, 36.767578%)" offset="0.03125"/><stop stop-opacity="1" stop-color="rgb(36.460876%, 36.460876%, 36.460876%)" offset="0.0351562"/><stop stop-opacity="1" stop-color="rgb(36.155701%, 36.155701%, 36.155701%)" offset="0.0390625"/><stop stop-opacity="1" stop-color="rgb(35.848999%, 35.848999%, 35.848999%)" offset="0.0429687"/><stop stop-opacity="1" stop-color="rgb(35.542297%, 35.542297%, 35.542297%)" offset="0.046875"/><stop stop-opacity="1" stop-color="rgb(35.235596%, 35.235596%, 35.235596%)" offset="0.0507812"/><stop stop-opacity="1" stop-color="rgb(34.928894%, 34.928894%, 34.928894%)" offset="0.0546875"/><stop stop-opacity="1" stop-color="rgb(34.622192%, 34.622192%, 34.622192%)" offset="0.0585938"/><stop stop-opacity="1" stop-color="rgb(34.317017%, 34.317017%, 34.317017%)" offset="0.0625"/><stop stop-opacity="1" stop-color="rgb(34.010315%, 34.010315%, 34.010315%)" offset="0.0664062"/><stop stop-opacity="1" stop-color="rgb(33.703613%, 33.703613%, 33.703613%)" offset="0.0703125"/><stop stop-opacity="1" stop-color="rgb(33.396912%, 33.396912%, 33.396912%)" offset="0.0742187"/><stop stop-opacity="1" stop-color="rgb(33.091736%, 33.091736%, 33.091736%)" offset="0.078125"/><stop stop-opacity="1" stop-color="rgb(32.785034%, 32.785034%, 32.785034%)" offset="0.0820312"/><stop stop-opacity="1" stop-color="rgb(32.478333%, 32.478333%, 32.478333%)" offset="0.0859375"/><stop stop-opacity="1" stop-color="rgb(32.171631%, 32.171631%, 32.171631%)" offset="0.0898437"/><stop stop-opacity="1" stop-color="rgb(31.864929%, 31.864929%, 31.864929%)" offset="0.09375"/><stop stop-opacity="1" stop-color="rgb(31.558228%, 31.558228%, 31.558228%)" offset="0.0976562"/><stop stop-opacity="1" stop-color="rgb(31.253052%, 31.253052%, 31.253052%)" offset="0.101562"/><stop stop-opacity="1" stop-color="rgb(30.94635%, 30.94635%, 30.94635%)" offset="0.105469"/><stop stop-opacity="1" stop-color="rgb(30.639648%, 30.639648%, 30.639648%)" offset="0.109375"/><stop stop-opacity="1" stop-color="rgb(30.332947%, 30.332947%, 30.332947%)" offset="0.113281"/><stop stop-opacity="1" stop-color="rgb(30.027771%, 30.027771%, 30.027771%)" offset="0.117188"/><stop stop-opacity="1" stop-color="rgb(29.721069%, 29.721069%, 29.721069%)" offset="0.121094"/><stop stop-opacity="1" stop-color="rgb(29.414368%, 29.414368%, 29.414368%)" offset="0.125"/><stop stop-opacity="1" stop-color="rgb(29.107666%, 29.107666%, 29.107666%)" offset="0.128906"/><stop stop-opacity="1" stop-color="rgb(28.800964%, 28.800964%, 28.800964%)" offset="0.132812"/><stop stop-opacity="1" stop-color="rgb(28.494263%, 28.494263%, 28.494263%)" offset="0.136719"/><stop stop-opacity="1" stop-color="rgb(28.189087%, 28.189087%, 28.189087%)" offset="0.140625"/><stop stop-opacity="1" stop-color="rgb(27.882385%, 27.882385%, 27.882385%)" offset="0.144531"/><stop stop-opacity="1" stop-color="rgb(27.575684%, 27.575684%, 27.575684%)" offset="0.148437"/><stop stop-opacity="1" stop-color="rgb(27.268982%, 27.268982%, 27.268982%)" offset="0.152344"/><stop stop-opacity="1" stop-color="rgb(26.96228%, 26.96228%, 26.96228%)" offset="0.15625"/><stop stop-opacity="1" stop-color="rgb(26.655579%, 26.655579%, 26.655579%)" offset="0.160156"/><stop stop-opacity="1" stop-color="rgb(26.350403%, 26.350403%, 26.350403%)" offset="0.164062"/><stop stop-opacity="1" stop-color="rgb(26.043701%, 26.043701%, 26.043701%)" offset="0.167969"/><stop stop-opacity="1" stop-color="rgb(25.737%, 25.737%, 25.737%)" offset="0.171875"/><stop stop-opacity="1" stop-color="rgb(25.430298%, 25.430298%, 25.430298%)" offset="0.175781"/><stop stop-opacity="1" stop-color="rgb(25.125122%, 25.125122%, 25.125122%)" offset="0.179687"/><stop stop-opacity="1" stop-color="rgb(24.81842%, 24.81842%, 24.81842%)" offset="0.183594"/><stop stop-opacity="1" stop-color="rgb(24.511719%, 24.511719%, 24.511719%)" offset="0.1875"/><stop stop-opacity="1" stop-color="rgb(24.205017%, 24.205017%, 24.205017%)" offset="0.191406"/><stop stop-opacity="1" stop-color="rgb(23.898315%, 23.898315%, 23.898315%)" offset="0.195312"/><stop stop-opacity="1" stop-color="rgb(23.591614%, 23.591614%, 23.591614%)" offset="0.199219"/><stop stop-opacity="1" stop-color="rgb(23.286438%, 23.286438%, 23.286438%)" offset="0.203125"/><stop stop-opacity="1" stop-color="rgb(22.979736%, 22.979736%, 22.979736%)" offset="0.207031"/><stop stop-opacity="1" stop-color="rgb(22.673035%, 22.673035%, 22.673035%)" offset="0.210938"/><stop stop-opacity="1" stop-color="rgb(22.366333%, 22.366333%, 22.366333%)" offset="0.214844"/><stop stop-opacity="1" stop-color="rgb(22.061157%, 22.061157%, 22.061157%)" offset="0.21875"/><stop stop-opacity="1" stop-color="rgb(21.754456%, 21.754456%, 21.754456%)" offset="0.222656"/><stop stop-opacity="1" stop-color="rgb(21.447754%, 21.447754%, 21.447754%)" offset="0.226562"/><stop stop-opacity="1" stop-color="rgb(21.141052%, 21.141052%, 21.141052%)" offset="0.230469"/><stop stop-opacity="1" stop-color="rgb(20.834351%, 20.834351%, 20.834351%)" offset="0.234375"/><stop stop-opacity="1" stop-color="rgb(20.527649%, 20.527649%, 20.527649%)" offset="0.238281"/><stop stop-opacity="1" stop-color="rgb(20.222473%, 20.222473%, 20.222473%)" offset="0.242188"/><stop stop-opacity="1" stop-color="rgb(19.915771%, 19.915771%, 19.915771%)" offset="0.246094"/><stop stop-opacity="1" stop-color="rgb(19.60907%, 19.60907%, 19.60907%)" offset="0.25"/><stop stop-opacity="1" stop-color="rgb(19.302368%, 19.302368%, 19.302368%)" offset="0.253906"/><stop stop-opacity="1" stop-color="rgb(18.995667%, 18.995667%, 18.995667%)" offset="0.257812"/><stop stop-opacity="1" stop-color="rgb(18.688965%, 18.688965%, 18.688965%)" offset="0.261719"/><stop stop-opacity="1" stop-color="rgb(18.383789%, 18.383789%, 18.383789%)" offset="0.265625"/><stop stop-opacity="1" stop-color="rgb(18.077087%, 18.077087%, 18.077087%)" offset="0.269531"/><stop stop-opacity="1" stop-color="rgb(17.770386%, 17.770386%, 17.770386%)" offset="0.273437"/><stop stop-opacity="1" stop-color="rgb(17.463684%, 17.463684%, 17.463684%)" offset="0.277344"/><stop stop-opacity="1" stop-color="rgb(17.158508%, 17.158508%, 17.158508%)" offset="0.28125"/><stop stop-opacity="1" stop-color="rgb(16.851807%, 16.851807%, 16.851807%)" offset="0.285156"/><stop stop-opacity="1" stop-color="rgb(16.545105%, 16.545105%, 16.545105%)" offset="0.289062"/><stop stop-opacity="1" stop-color="rgb(16.238403%, 16.238403%, 16.238403%)" offset="0.292969"/><stop stop-opacity="1" stop-color="rgb(15.931702%, 15.931702%, 15.931702%)" offset="0.296875"/><stop stop-opacity="1" stop-color="rgb(15.625%, 15.625%, 15.625%)" offset="0.300781"/><stop stop-opacity="1" stop-color="rgb(15.319824%, 15.319824%, 15.319824%)" offset="0.304687"/><stop stop-opacity="1" stop-color="rgb(15.013123%, 15.013123%, 15.013123%)" offset="0.308594"/><stop stop-opacity="1" stop-color="rgb(14.706421%, 14.706421%, 14.706421%)" offset="0.3125"/><stop stop-opacity="1" stop-color="rgb(14.399719%, 14.399719%, 14.399719%)" offset="0.316406"/><stop stop-opacity="1" stop-color="rgb(14.094543%, 14.094543%, 14.094543%)" offset="0.320312"/><stop stop-opacity="1" stop-color="rgb(13.787842%, 13.787842%, 13.787842%)" offset="0.324219"/><stop stop-opacity="1" stop-color="rgb(13.48114%, 13.48114%, 13.48114%)" offset="0.328125"/><stop stop-opacity="1" stop-color="rgb(13.174438%, 13.174438%, 13.174438%)" offset="0.332031"/><stop stop-opacity="1" stop-color="rgb(12.867737%, 12.867737%, 12.867737%)" offset="0.335937"/><stop stop-opacity="1" stop-color="rgb(12.561035%, 12.561035%, 12.561035%)" offset="0.339844"/><stop stop-opacity="1" stop-color="rgb(12.255859%, 12.255859%, 12.255859%)" offset="0.34375"/><stop stop-opacity="1" stop-color="rgb(11.949158%, 11.949158%, 11.949158%)" offset="0.347656"/><stop stop-opacity="1" stop-color="rgb(11.642456%, 11.642456%, 11.642456%)" offset="0.351562"/><stop stop-opacity="1" stop-color="rgb(11.335754%, 11.335754%, 11.335754%)" offset="0.355469"/><stop stop-opacity="1" stop-color="rgb(11.030579%, 11.030579%, 11.030579%)" offset="0.359375"/><stop stop-opacity="1" stop-color="rgb(10.723877%, 10.723877%, 10.723877%)" offset="0.363281"/><stop stop-opacity="1" stop-color="rgb(10.417175%, 10.417175%, 10.417175%)" offset="0.367187"/><stop stop-opacity="1" stop-color="rgb(10.110474%, 10.110474%, 10.110474%)" offset="0.371094"/><stop stop-opacity="1" stop-color="rgb(9.803772%, 9.803772%, 9.803772%)" offset="0.375"/><stop stop-opacity="1" stop-color="rgb(9.49707%, 9.49707%, 9.49707%)" offset="0.378906"/><stop stop-opacity="1" stop-color="rgb(9.191895%, 9.191895%, 9.191895%)" offset="0.382812"/><stop stop-opacity="1" stop-color="rgb(8.885193%, 8.885193%, 8.885193%)" offset="0.386719"/><stop stop-opacity="1" stop-color="rgb(8.578491%, 8.578491%, 8.578491%)" offset="0.390625"/><stop stop-opacity="1" stop-color="rgb(8.27179%, 8.27179%, 8.27179%)" offset="0.394531"/><stop stop-opacity="1" stop-color="rgb(7.965088%, 7.965088%, 7.965088%)" offset="0.398438"/><stop stop-opacity="1" stop-color="rgb(7.658386%, 7.658386%, 7.658386%)" offset="0.402344"/><stop stop-opacity="1" stop-color="rgb(7.35321%, 7.35321%, 7.35321%)" offset="0.40625"/><stop stop-opacity="1" stop-color="rgb(7.046509%, 7.046509%, 7.046509%)" offset="0.410156"/><stop stop-opacity="1" stop-color="rgb(6.739807%, 6.739807%, 6.739807%)" offset="0.414062"/><stop stop-opacity="1" stop-color="rgb(6.433105%, 6.433105%, 6.433105%)" offset="0.417969"/><stop stop-opacity="1" stop-color="rgb(6.12793%, 6.12793%, 6.12793%)" offset="0.421875"/><stop stop-opacity="1" stop-color="rgb(5.821228%, 5.821228%, 5.821228%)" offset="0.425781"/><stop stop-opacity="1" stop-color="rgb(5.514526%, 5.514526%, 5.514526%)" offset="0.429688"/><stop stop-opacity="1" stop-color="rgb(5.207825%, 5.207825%, 5.207825%)" offset="0.433594"/><stop stop-opacity="1" stop-color="rgb(4.901123%, 4.901123%, 4.901123%)" offset="0.4375"/><stop stop-opacity="1" stop-color="rgb(4.594421%, 4.594421%, 4.594421%)" offset="0.441406"/><stop stop-opacity="1" stop-color="rgb(4.289246%, 4.289246%, 4.289246%)" offset="0.445312"/><stop stop-opacity="1" stop-color="rgb(3.982544%, 3.982544%, 3.982544%)" offset="0.449219"/><stop stop-opacity="1" stop-color="rgb(3.675842%, 3.675842%, 3.675842%)" offset="0.453125"/><stop stop-opacity="1" stop-color="rgb(3.369141%, 3.369141%, 3.369141%)" offset="0.457031"/><stop stop-opacity="1" stop-color="rgb(3.063965%, 3.063965%, 3.063965%)" offset="0.460938"/><stop stop-opacity="1" stop-color="rgb(2.757263%, 2.757263%, 2.757263%)" offset="0.464844"/><stop stop-opacity="1" stop-color="rgb(2.450562%, 2.450562%, 2.450562%)" offset="0.46875"/><stop stop-opacity="1" stop-color="rgb(2.14386%, 2.14386%, 2.14386%)" offset="0.472656"/><stop stop-opacity="1" stop-color="rgb(1.837158%, 1.837158%, 1.837158%)" offset="0.476562"/><stop stop-opacity="1" stop-color="rgb(1.530457%, 1.530457%, 1.530457%)" offset="0.480469"/><stop stop-opacity="1" stop-color="rgb(1.225281%, 1.225281%, 1.225281%)" offset="0.484375"/><stop stop-opacity="1" stop-color="rgb(0.918579%, 0.918579%, 0.918579%)" offset="0.488281"/><stop stop-opacity="1" stop-color="rgb(0.611877%, 0.611877%, 0.611877%)" offset="0.492188"/><stop stop-opacity="1" stop-color="rgb(0.305176%, 0.305176%, 0.305176%)" offset="0.496094"/><stop stop-opacity="1" stop-color="rgb(0%, 0%, 0%)" offset="0.5"/><stop stop-opacity="1" stop-color="rgb(0.305176%, 0.305176%, 0.305176%)" offset="0.503906"/><stop stop-opacity="1" stop-color="rgb(0.611877%, 0.611877%, 0.611877%)" offset="0.507812"/><stop stop-opacity="1" stop-color="rgb(0.918579%, 0.918579%, 0.918579%)" offset="0.511719"/><stop stop-opacity="1" stop-color="rgb(1.225281%, 1.225281%, 1.225281%)" offset="0.515625"/><stop stop-opacity="1" stop-color="rgb(1.530457%, 1.530457%, 1.530457%)" offset="0.519531"/><stop stop-opacity="1" stop-color="rgb(1.837158%, 1.837158%, 1.837158%)" offset="0.523437"/><stop stop-opacity="1" stop-color="rgb(2.14386%, 2.14386%, 2.14386%)" offset="0.527344"/><stop stop-opacity="1" stop-color="rgb(2.450562%, 2.450562%, 2.450562%)" offset="0.53125"/><stop stop-opacity="1" stop-color="rgb(2.757263%, 2.757263%, 2.757263%)" offset="0.535156"/><stop stop-opacity="1" stop-color="rgb(3.063965%, 3.063965%, 3.063965%)" offset="0.539062"/><stop stop-opacity="1" stop-color="rgb(3.369141%, 3.369141%, 3.369141%)" offset="0.542969"/><stop stop-opacity="1" stop-color="rgb(3.675842%, 3.675842%, 3.675842%)" offset="0.546875"/><stop stop-opacity="1" stop-color="rgb(3.982544%, 3.982544%, 3.982544%)" offset="0.550781"/><stop stop-opacity="1" stop-color="rgb(4.289246%, 4.289246%, 4.289246%)" offset="0.554687"/><stop stop-opacity="1" stop-color="rgb(4.594421%, 4.594421%, 4.594421%)" offset="0.558594"/><stop stop-opacity="1" stop-color="rgb(4.901123%, 4.901123%, 4.901123%)" offset="0.5625"/><stop stop-opacity="1" stop-color="rgb(5.207825%, 5.207825%, 5.207825%)" offset="0.566406"/><stop stop-opacity="1" stop-color="rgb(5.514526%, 5.514526%, 5.514526%)" offset="0.570312"/><stop stop-opacity="1" stop-color="rgb(5.821228%, 5.821228%, 5.821228%)" offset="0.574219"/><stop stop-opacity="1" stop-color="rgb(6.12793%, 6.12793%, 6.12793%)" offset="0.578125"/><stop stop-opacity="1" stop-color="rgb(6.433105%, 6.433105%, 6.433105%)" offset="0.582031"/><stop stop-opacity="1" stop-color="rgb(6.739807%, 6.739807%, 6.739807%)" offset="0.585937"/><stop stop-opacity="1" stop-color="rgb(7.046509%, 7.046509%, 7.046509%)" offset="0.589844"/><stop stop-opacity="1" stop-color="rgb(7.35321%, 7.35321%, 7.35321%)" offset="0.59375"/><stop stop-opacity="1" stop-color="rgb(7.658386%, 7.658386%, 7.658386%)" offset="0.597656"/><stop stop-opacity="1" stop-color="rgb(7.965088%, 7.965088%, 7.965088%)" offset="0.601562"/><stop stop-opacity="1" stop-color="rgb(8.27179%, 8.27179%, 8.27179%)" offset="0.605469"/><stop stop-opacity="1" stop-color="rgb(8.578491%, 8.578491%, 8.578491%)" offset="0.609375"/><stop stop-opacity="1" stop-color="rgb(8.885193%, 8.885193%, 8.885193%)" offset="0.613281"/><stop stop-opacity="1" stop-color="rgb(9.191895%, 9.191895%, 9.191895%)" offset="0.617187"/><stop stop-opacity="1" stop-color="rgb(9.49707%, 9.49707%, 9.49707%)" offset="0.621094"/><stop stop-opacity="1" stop-color="rgb(9.803772%, 9.803772%, 9.803772%)" offset="0.625"/><stop stop-opacity="1" stop-color="rgb(10.110474%, 10.110474%, 10.110474%)" offset="0.628906"/><stop stop-opacity="1" stop-color="rgb(10.417175%, 10.417175%, 10.417175%)" offset="0.632812"/><stop stop-opacity="1" stop-color="rgb(10.723877%, 10.723877%, 10.723877%)" offset="0.636719"/><stop stop-opacity="1" stop-color="rgb(11.030579%, 11.030579%, 11.030579%)" offset="0.640625"/><stop stop-opacity="1" stop-color="rgb(11.335754%, 11.335754%, 11.335754%)" offset="0.644531"/><stop stop-opacity="1" stop-color="rgb(11.642456%, 11.642456%, 11.642456%)" offset="0.648437"/><stop stop-opacity="1" stop-color="rgb(11.949158%, 11.949158%, 11.949158%)" offset="0.652344"/><stop stop-opacity="1" stop-color="rgb(12.255859%, 12.255859%, 12.255859%)" offset="0.65625"/><stop stop-opacity="1" stop-color="rgb(12.561035%, 12.561035%, 12.561035%)" offset="0.660156"/><stop stop-opacity="1" stop-color="rgb(12.867737%, 12.867737%, 12.867737%)" offset="0.664062"/><stop stop-opacity="1" stop-color="rgb(13.174438%, 13.174438%, 13.174438%)" offset="0.667969"/><stop stop-opacity="1" stop-color="rgb(13.48114%, 13.48114%, 13.48114%)" offset="0.671875"/><stop stop-opacity="1" stop-color="rgb(13.787842%, 13.787842%, 13.787842%)" offset="0.675781"/><stop stop-opacity="1" stop-color="rgb(14.094543%, 14.094543%, 14.094543%)" offset="0.679687"/><stop stop-opacity="1" stop-color="rgb(14.399719%, 14.399719%, 14.399719%)" offset="0.683594"/><stop stop-opacity="1" stop-color="rgb(14.706421%, 14.706421%, 14.706421%)" offset="0.6875"/><stop stop-opacity="1" stop-color="rgb(15.013123%, 15.013123%, 15.013123%)" offset="0.691406"/><stop stop-opacity="1" stop-color="rgb(15.319824%, 15.319824%, 15.319824%)" offset="0.695312"/><stop stop-opacity="1" stop-color="rgb(15.625%, 15.625%, 15.625%)" offset="0.699219"/><stop stop-opacity="1" stop-color="rgb(15.931702%, 15.931702%, 15.931702%)" offset="0.703125"/><stop stop-opacity="1" stop-color="rgb(16.238403%, 16.238403%, 16.238403%)" offset="0.707031"/><stop stop-opacity="1" stop-color="rgb(16.545105%, 16.545105%, 16.545105%)" offset="0.710937"/><stop stop-opacity="1" stop-color="rgb(16.851807%, 16.851807%, 16.851807%)" offset="0.714844"/><stop stop-opacity="1" stop-color="rgb(17.158508%, 17.158508%, 17.158508%)" offset="0.71875"/><stop stop-opacity="1" stop-color="rgb(17.463684%, 17.463684%, 17.463684%)" offset="0.722656"/><stop stop-opacity="1" stop-color="rgb(17.770386%, 17.770386%, 17.770386%)" offset="0.726562"/><stop stop-opacity="1" stop-color="rgb(18.077087%, 18.077087%, 18.077087%)" offset="0.730469"/><stop stop-opacity="1" stop-color="rgb(18.383789%, 18.383789%, 18.383789%)" offset="0.734375"/><stop stop-opacity="1" stop-color="rgb(18.688965%, 18.688965%, 18.688965%)" offset="0.738281"/><stop stop-opacity="1" stop-color="rgb(18.995667%, 18.995667%, 18.995667%)" offset="0.742187"/><stop stop-opacity="1" stop-color="rgb(19.302368%, 19.302368%, 19.302368%)" offset="0.746094"/><stop stop-opacity="1" stop-color="rgb(19.60907%, 19.60907%, 19.60907%)" offset="0.75"/><stop stop-opacity="1" stop-color="rgb(19.915771%, 19.915771%, 19.915771%)" offset="0.753906"/><stop stop-opacity="1" stop-color="rgb(20.222473%, 20.222473%, 20.222473%)" offset="0.757812"/><stop stop-opacity="1" stop-color="rgb(20.527649%, 20.527649%, 20.527649%)" offset="0.761719"/><stop stop-opacity="1" stop-color="rgb(20.834351%, 20.834351%, 20.834351%)" offset="0.765625"/><stop stop-opacity="1" stop-color="rgb(21.141052%, 21.141052%, 21.141052%)" offset="0.769531"/><stop stop-opacity="1" stop-color="rgb(21.447754%, 21.447754%, 21.447754%)" offset="0.773438"/><stop stop-opacity="1" stop-color="rgb(21.754456%, 21.754456%, 21.754456%)" offset="0.777344"/><stop stop-opacity="1" stop-color="rgb(22.061157%, 22.061157%, 22.061157%)" offset="0.78125"/><stop stop-opacity="1" stop-color="rgb(22.366333%, 22.366333%, 22.366333%)" offset="0.785156"/><stop stop-opacity="1" stop-color="rgb(22.673035%, 22.673035%, 22.673035%)" offset="0.789062"/><stop stop-opacity="1" stop-color="rgb(22.979736%, 22.979736%, 22.979736%)" offset="0.792969"/><stop stop-opacity="1" stop-color="rgb(23.286438%, 23.286438%, 23.286438%)" offset="0.796875"/><stop stop-opacity="1" stop-color="rgb(23.591614%, 23.591614%, 23.591614%)" offset="0.800781"/><stop stop-opacity="1" stop-color="rgb(23.898315%, 23.898315%, 23.898315%)" offset="0.804688"/><stop stop-opacity="1" stop-color="rgb(24.205017%, 24.205017%, 24.205017%)" offset="0.808594"/><stop stop-opacity="1" stop-color="rgb(24.511719%, 24.511719%, 24.511719%)" offset="0.8125"/><stop stop-opacity="1" stop-color="rgb(24.81842%, 24.81842%, 24.81842%)" offset="0.816406"/><stop stop-opacity="1" stop-color="rgb(25.125122%, 25.125122%, 25.125122%)" offset="0.820312"/><stop stop-opacity="1" stop-color="rgb(25.430298%, 25.430298%, 25.430298%)" offset="0.824219"/><stop stop-opacity="1" stop-color="rgb(25.737%, 25.737%, 25.737%)" offset="0.828125"/><stop stop-opacity="1" stop-color="rgb(26.043701%, 26.043701%, 26.043701%)" offset="0.832031"/><stop stop-opacity="1" stop-color="rgb(26.350403%, 26.350403%, 26.350403%)" offset="0.835938"/><stop stop-opacity="1" stop-color="rgb(26.655579%, 26.655579%, 26.655579%)" offset="0.839844"/><stop stop-opacity="1" stop-color="rgb(26.96228%, 26.96228%, 26.96228%)" offset="0.84375"/><stop stop-opacity="1" stop-color="rgb(27.268982%, 27.268982%, 27.268982%)" offset="0.847656"/><stop stop-opacity="1" stop-color="rgb(27.575684%, 27.575684%, 27.575684%)" offset="0.851562"/><stop stop-opacity="1" stop-color="rgb(27.882385%, 27.882385%, 27.882385%)" offset="0.855469"/><stop stop-opacity="1" stop-color="rgb(28.189087%, 28.189087%, 28.189087%)" offset="0.859375"/><stop stop-opacity="1" stop-color="rgb(28.494263%, 28.494263%, 28.494263%)" offset="0.863281"/><stop stop-opacity="1" stop-color="rgb(28.800964%, 28.800964%, 28.800964%)" offset="0.867188"/><stop stop-opacity="1" stop-color="rgb(29.107666%, 29.107666%, 29.107666%)" offset="0.871094"/><stop stop-opacity="1" stop-color="rgb(29.414368%, 29.414368%, 29.414368%)" offset="0.875"/><stop stop-opacity="1" stop-color="rgb(29.721069%, 29.721069%, 29.721069%)" offset="0.878906"/><stop stop-opacity="1" stop-color="rgb(30.027771%, 30.027771%, 30.027771%)" offset="0.882812"/><stop stop-opacity="1" stop-color="rgb(30.332947%, 30.332947%, 30.332947%)" offset="0.886719"/><stop stop-opacity="1" stop-color="rgb(30.639648%, 30.639648%, 30.639648%)" offset="0.890625"/><stop stop-opacity="1" stop-color="rgb(30.94635%, 30.94635%, 30.94635%)" offset="0.894531"/><stop stop-opacity="1" stop-color="rgb(31.253052%, 31.253052%, 31.253052%)" offset="0.898438"/><stop stop-opacity="1" stop-color="rgb(31.558228%, 31.558228%, 31.558228%)" offset="0.902344"/><stop stop-opacity="1" stop-color="rgb(31.864929%, 31.864929%, 31.864929%)" offset="0.90625"/><stop stop-opacity="1" stop-color="rgb(32.171631%, 32.171631%, 32.171631%)" offset="0.910156"/><stop stop-opacity="1" stop-color="rgb(32.478333%, 32.478333%, 32.478333%)" offset="0.914062"/><stop stop-opacity="1" stop-color="rgb(32.785034%, 32.785034%, 32.785034%)" offset="0.917969"/><stop stop-opacity="1" stop-color="rgb(33.091736%, 33.091736%, 33.091736%)" offset="0.921875"/><stop stop-opacity="1" stop-color="rgb(33.396912%, 33.396912%, 33.396912%)" offset="0.925781"/><stop stop-opacity="1" stop-color="rgb(33.703613%, 33.703613%, 33.703613%)" offset="0.929688"/><stop stop-opacity="1" stop-color="rgb(34.010315%, 34.010315%, 34.010315%)" offset="0.933594"/><stop stop-opacity="1" stop-color="rgb(34.317017%, 34.317017%, 34.317017%)" offset="0.9375"/><stop stop-opacity="1" stop-color="rgb(34.622192%, 34.622192%, 34.622192%)" offset="0.941406"/><stop stop-opacity="1" stop-color="rgb(34.928894%, 34.928894%, 34.928894%)" offset="0.945312"/><stop stop-opacity="1" stop-color="rgb(35.235596%, 35.235596%, 35.235596%)" offset="0.949219"/><stop stop-opacity="1" stop-color="rgb(35.542297%, 35.542297%, 35.542297%)" offset="0.953125"/><stop stop-opacity="1" stop-color="rgb(35.848999%, 35.848999%, 35.848999%)" offset="0.957031"/><stop stop-opacity="1" stop-color="rgb(36.155701%, 36.155701%, 36.155701%)" offset="0.960938"/><stop stop-opacity="1" stop-color="rgb(36.460876%, 36.460876%, 36.460876%)" offset="0.964844"/><stop stop-opacity="1" stop-color="rgb(36.767578%, 36.767578%, 36.767578%)" offset="0.96875"/><stop stop-opacity="1" stop-color="rgb(37.07428%, 37.07428%, 37.07428%)" offset="0.972656"/><stop stop-opacity="1" stop-color="rgb(37.380981%, 37.380981%, 37.380981%)" offset="0.976562"/><stop stop-opacity="1" stop-color="rgb(37.686157%, 37.686157%, 37.686157%)" offset="0.980469"/><stop stop-opacity="1" stop-color="rgb(37.992859%, 37.992859%, 37.992859%)" offset="0.984375"/><stop stop-opacity="1" stop-color="rgb(38.299561%, 38.299561%, 38.299561%)" offset="0.988281"/><stop stop-opacity="1" stop-color="rgb(38.606262%, 38.606262%, 38.606262%)" offset="0.992188"/><stop stop-opacity="1" stop-color="rgb(38.912964%, 38.912964%, 38.912964%)" offset="0.996094"/><stop stop-opacity="1" stop-color="rgb(39.219666%, 39.219666%, 39.219666%)" offset="1"/></linearGradient><clipPath id="6795675bac"><path d="M 74 130 L 113 130 L 113 170 L 74 170 Z M 74 130 " clip-rule="nonzero"/></clipPath><clipPath id="c34933491d"><path d="M 70.601562 158.886719 L 95.675781 121.519531 L 119.964844 137.816406 L 94.890625 175.183594 Z M 70.601562 158.886719 " clip-rule="nonzero"/></clipPath><clipPath id="048d53deef"><path d="M 70.601562 158.886719 L 95.675781 121.519531 L 119.964844 137.816406 L 94.890625 175.183594 Z M 70.601562 158.886719 " clip-rule="nonzero"/></clipPath><clipPath id="c807f2eb4c"><path d="M 75 130 L 112 130 L 112 168 L 75 168 Z M 75 130 " clip-rule="nonzero"/></clipPath><clipPath id="8d7ec21755"><path d="M 70.601562 158.886719 L 95.675781 121.519531 L 119.964844 137.816406 L 94.890625 175.183594 Z M 70.601562 158.886719 " clip-rule="nonzero"/></clipPath><clipPath id="a06fcb805a"><path d="M 70.601562 158.886719 L 95.675781 121.519531 L 119.964844 137.816406 L 94.890625 175.183594 Z M 70.601562 158.886719 " clip-rule="nonzero"/></clipPath><clipPath id="09b8026e17"><path d="M 78 159 L 87 159 L 87 163 L 78 163 Z M 78 159 " clip-rule="nonzero"/></clipPath><clipPath id="8ef58d4f42"><path d="M 70.601562 158.886719 L 95.675781 121.519531 L 119.964844 137.816406 L 94.890625 175.183594 Z M 70.601562 158.886719 " clip-rule="nonzero"/></clipPath><clipPath id="617c006d65"><path d="M 70.601562 158.886719 L 95.675781 121.519531 L 119.964844 137.816406 L 94.890625 175.183594 Z M 70.601562 158.886719 " clip-rule="nonzero"/></clipPath><clipPath id="7d1631308b"><path d="M 89 139 L 97 139 L 97 148 L 89 148 Z M 89 139 " clip-rule="nonzero"/></clipPath><clipPath id="da47ab7a5a"><path d="M 70.601562 158.886719 L 95.675781 121.519531 L 119.964844 137.816406 L 94.890625 175.183594 Z M 70.601562 158.886719 " clip-rule="nonzero"/></clipPath><clipPath id="9faa4fd1e9"><path d="M 70.601562 158.886719 L 95.675781 121.519531 L 119.964844 137.816406 L 94.890625 175.183594 Z M 70.601562 158.886719 " clip-rule="nonzero"/></clipPath><clipPath id="9b70406e81"><path d="M 89 137 L 111 137 L 111 156 L 89 156 Z M 89 137 " clip-rule="nonzero"/></clipPath><clipPath id="677cc96bfa"><path d="M 70.601562 158.886719 L 95.675781 121.519531 L 119.964844 137.816406 L 94.890625 175.183594 Z M 70.601562 158.886719 " clip-rule="nonzero"/></clipPath><clipPath id="7c402440d5"><path d="M 70.601562 158.886719 L 95.675781 121.519531 L 119.964844 137.816406 L 94.890625 175.183594 Z M 70.601562 158.886719 " clip-rule="nonzero"/></clipPath><clipPath id="463e3fff34"><path d="M 84 145 L 94 145 L 94 150 L 84 150 Z M 84 145 " clip-rule="nonzero"/></clipPath><clipPath id="ee486a1f13"><path d="M 70.601562 158.886719 L 95.675781 121.519531 L 119.964844 137.816406 L 94.890625 175.183594 Z M 70.601562 158.886719 " clip-rule="nonzero"/></clipPath><clipPath id="ef5b329217"><path d="M 70.601562 158.886719 L 95.675781 121.519531 L 119.964844 137.816406 L 94.890625 175.183594 Z M 70.601562 158.886719 " clip-rule="nonzero"/></clipPath><clipPath id="202e688736"><path d="M 103 145 L 106 145 L 106 150 L 103 150 Z M 103 145 " clip-rule="nonzero"/></clipPath><clipPath id="73f38bd6eb"><path d="M 70.601562 158.886719 L 95.675781 121.519531 L 119.964844 137.816406 L 94.890625 175.183594 Z M 70.601562 158.886719 " clip-rule="nonzero"/></clipPath><clipPath id="4eaab84174"><path d="M 70.601562 158.886719 L 95.675781 121.519531 L 119.964844 137.816406 L 94.890625 175.183594 Z M 70.601562 158.886719 " clip-rule="nonzero"/></clipPath><clipPath id="f544c53564"><path d="M 94 139 L 107 139 L 107 151 L 94 151 Z M 94 139 " clip-rule="nonzero"/></clipPath><clipPath id="70e3f0ef5f"><path d="M 70.601562 158.886719 L 95.675781 121.519531 L 119.964844 137.816406 L 94.890625 175.183594 Z M 70.601562 158.886719 " clip-rule="nonzero"/></clipPath><clipPath id="558d6c3390"><path d="M 70.601562 158.886719 L 95.675781 121.519531 L 119.964844 137.816406 L 94.890625 175.183594 Z M 70.601562 158.886719 " clip-rule="nonzero"/></clipPath><clipPath id="c059f1930a"><path d="M 89 149 L 99 149 L 99 157 L 89 157 Z M 89 149 " clip-rule="nonzero"/></clipPath><clipPath id="879d0a4314"><path d="M 70.601562 158.886719 L 95.675781 121.519531 L 119.964844 137.816406 L 94.890625 175.183594 Z M 70.601562 158.886719 " clip-rule="nonzero"/></clipPath><clipPath id="1539714f0b"><path d="M 70.601562 158.886719 L 95.675781 121.519531 L 119.964844 137.816406 L 94.890625 175.183594 Z M 70.601562 158.886719 " clip-rule="nonzero"/></clipPath><clipPath id="f586849dee"><path d="M 83 159 L 87 159 L 87 162 L 83 162 Z M 83 159 " clip-rule="nonzero"/></clipPath><clipPath id="309d6cbaed"><path d="M 70.601562 158.886719 L 95.675781 121.519531 L 119.964844 137.816406 L 94.890625 175.183594 Z M 70.601562 158.886719 " clip-rule="nonzero"/></clipPath><clipPath id="96afeac8e7"><path d="M 70.601562 158.886719 L 95.675781 121.519531 L 119.964844 137.816406 L 94.890625 175.183594 Z M 70.601562 158.886719 " clip-rule="nonzero"/></clipPath><clipPath id="cca81345dc"><path d="M 222.703125 148.523438 L 296.148438 148.523438 L 296.148438 211.199219 L 222.703125 211.199219 Z M 222.703125 148.523438 " clip-rule="nonzero"/></clipPath></defs><rect x="-37.5" width="450" fill="#ffffff" y="-37.499999" height="449.999989" fill-opacity="1"/><rect x="-37.5" fill="url(#7dd9fea1da)" width="450" y="-37.499999" height="449.999989"/><g fill="#ffffff" fill-opacity="1"><g transform="translate(90.352265, 239.877171)"><g><path d="M 32.4375 0 L 22.078125 0 L 9.921875 -14 L 9.921875 0 L 2.40625 0 L 2.40625 -33 L 9.921875 -33 L 9.921875 -19.515625 L 21.234375 -33 L 30.359375 -33 L 17.078125 -17.359375 Z M 32.4375 0 "/></g></g></g><g fill="#ffffff" fill-opacity="1"><g transform="translate(121.829135, 239.877171)"><g><path d="M 9.921875 -33 L 9.921875 0 L 2.40625 0 L 2.40625 -33 Z M 9.921875 -33 "/></g></g></g><g fill="#ffffff" fill-opacity="1"><g transform="translate(132.228026, 239.877171)"><g><path d="M 0.3125 -26.40625 L 0.3125 -33 L 23.515625 -33 L 23.515625 -26.40625 L 15.6875 -26.40625 L 15.6875 0 L 8.15625 0 L 8.15625 -26.40625 Z M 0.3125 -26.40625 "/></g></g></g><g fill="#ffffff" fill-opacity="1"><g transform="translate(154.785737, 239.877171)"><g><path d="M 19.953125 -6.796875 C 21.109375 -6.796875 22.222656 -6.96875 23.296875 -7.3125 C 24.378906 -7.664062 25.175781 -8 25.6875 -8.3125 L 26.4375 -8.84375 L 29.640625 -2.4375 C 29.535156 -2.351562 29.390625 -2.242188 29.203125 -2.109375 C 29.015625 -1.984375 28.578125 -1.738281 27.890625 -1.375 C 27.210938 -1.019531 26.488281 -0.707031 25.71875 -0.4375 C 24.945312 -0.175781 23.929688 0.0546875 22.671875 0.265625 C 21.421875 0.484375 20.128906 0.59375 18.796875 0.59375 C 15.734375 0.59375 12.828125 -0.15625 10.078125 -1.65625 C 7.328125 -3.164062 5.113281 -5.238281 3.4375 -7.875 C 1.757812 -10.519531 0.921875 -13.375 0.921875 -16.4375 C 0.921875 -18.757812 1.410156 -20.984375 2.390625 -23.109375 C 3.378906 -25.242188 4.691406 -27.070312 6.328125 -28.59375 C 7.972656 -30.113281 9.890625 -31.328125 12.078125 -32.234375 C 14.265625 -33.140625 16.503906 -33.59375 18.796875 -33.59375 C 20.929688 -33.59375 22.898438 -33.335938 24.703125 -32.828125 C 26.503906 -32.328125 27.773438 -31.820312 28.515625 -31.3125 L 29.640625 -30.5625 L 26.4375 -24.15625 C 26.25 -24.320312 25.96875 -24.515625 25.59375 -24.734375 C 25.226562 -24.960938 24.484375 -25.265625 23.359375 -25.640625 C 22.242188 -26.015625 21.109375 -26.203125 19.953125 -26.203125 C 18.140625 -26.203125 16.515625 -25.90625 15.078125 -25.3125 C 13.640625 -24.726562 12.5 -23.957031 11.65625 -23 C 10.820312 -22.039062 10.179688 -21.003906 9.734375 -19.890625 C 9.296875 -18.785156 9.078125 -17.660156 9.078125 -16.515625 C 9.078125 -14.015625 10.015625 -11.769531 11.890625 -9.78125 C 13.773438 -7.789062 16.460938 -6.796875 19.953125 -6.796875 Z M 19.953125 -6.796875 "/></g></g></g><g fill="#ffffff" fill-opacity="1"><g transform="translate(184.902739, 239.877171)"><g><path d="M 9.921875 -13.234375 L 9.921875 0 L 2.40625 0 L 2.40625 -33 L 9.921875 -33 L 9.921875 -19.84375 L 20.5625 -19.84375 L 20.5625 -33 L 28.078125 -33 L 28.078125 0 L 20.5625 0 L 20.5625 -13.234375 Z M 9.921875 -13.234375 "/></g></g></g><g fill="#ffffff" fill-opacity="1"><g transform="translate(215.379715, 239.877171)"><g><path d="M 21.28125 -33 L 21.28125 -26.40625 L 9.921875 -26.40625 L 9.921875 -19.84375 L 20.796875 -19.84375 L 20.796875 -13.234375 L 9.921875 -13.234375 L 9.921875 -6.59375 L 21.28125 -6.59375 L 21.28125 0 L 2.40625 0 L 2.40625 -33 Z M 21.28125 -33 "/></g></g></g><g fill="#ffffff" fill-opacity="1"><g transform="translate(238.577414, 239.877171)"><g><path d="M 9.921875 -20.484375 L 9.921875 0 L 2.40625 0 L 2.40625 -33 L 9.921875 -33 L 23.046875 -12.515625 L 23.125 -12.515625 L 23.125 -33 L 30.640625 -33 L 30.640625 0 L 23.125 0 L 10 -20.484375 Z M 9.921875 -20.484375 "/></g></g></g><g fill="#ffffff" fill-opacity="1"><g transform="translate(86.285155, 198.595036)"><g><path d="M 18.484375 -42.671875 C 20.753906 -42.671875 22.972656 -42.335938 25.140625 -41.671875 C 27.304688 -41.015625 28.914062 -40.363281 29.96875 -39.71875 L 31.5 -38.703125 L 27.640625 -31.09375 C 27.328125 -31.289062 26.898438 -31.550781 26.359375 -31.875 C 25.816406 -32.195312 24.800781 -32.628906 23.3125 -33.171875 C 21.820312 -33.710938 20.4375 -33.984375 19.15625 -33.984375 C 17.5625 -33.984375 16.332031 -33.644531 15.46875 -32.96875 C 14.601562 -32.289062 14.171875 -31.375 14.171875 -30.21875 C 14.171875 -29.644531 14.375 -29.113281 14.78125 -28.625 C 15.1875 -28.132812 15.878906 -27.609375 16.859375 -27.046875 C 17.847656 -26.492188 18.710938 -26.046875 19.453125 -25.703125 C 20.203125 -25.359375 21.351562 -24.847656 22.90625 -24.171875 C 25.613281 -23.023438 27.925781 -21.460938 29.84375 -19.484375 C 31.757812 -17.503906 32.71875 -15.257812 32.71875 -12.75 C 32.71875 -10.34375 32.285156 -8.242188 31.421875 -6.453125 C 30.554688 -4.660156 29.367188 -3.253906 27.859375 -2.234375 C 26.359375 -1.222656 24.691406 -0.472656 22.859375 0.015625 C 21.023438 0.515625 19.046875 0.765625 16.921875 0.765625 C 15.085938 0.765625 13.289062 0.578125 11.53125 0.203125 C 9.769531 -0.171875 8.296875 -0.632812 7.109375 -1.1875 C 5.921875 -1.75 4.851562 -2.300781 3.90625 -2.84375 C 2.957031 -3.382812 2.265625 -3.84375 1.828125 -4.21875 L 1.171875 -4.78125 L 5.9375 -12.796875 C 6.34375 -12.460938 6.898438 -12.03125 7.609375 -11.5 C 8.328125 -10.976562 9.59375 -10.273438 11.40625 -9.390625 C 13.21875 -8.515625 14.816406 -8.078125 16.203125 -8.078125 C 20.234375 -8.078125 22.25 -9.445312 22.25 -12.1875 C 22.25 -12.769531 22.101562 -13.304688 21.8125 -13.796875 C 21.53125 -14.285156 21.023438 -14.773438 20.296875 -15.265625 C 19.566406 -15.753906 18.921875 -16.140625 18.359375 -16.421875 C 17.804688 -16.710938 16.894531 -17.15625 15.625 -17.75 C 14.351562 -18.34375 13.410156 -18.789062 12.796875 -19.09375 C 10.253906 -20.351562 8.289062 -21.921875 6.90625 -23.796875 C 5.519531 -25.679688 4.828125 -27.707031 4.828125 -29.875 C 4.828125 -33.625 6.210938 -36.691406 8.984375 -39.078125 C 11.765625 -41.472656 14.929688 -42.671875 18.484375 -42.671875 Z M 18.484375 -42.671875 "/></g></g></g><g fill="#ffffff" fill-opacity="1"><g transform="translate(120.415406, 198.595036)"><g><path d="M 24.328125 -41.90625 L 41.25 0 L 30.984375 0 L 27.890625 -8.375 L 11.9375 -8.375 L 8.84375 0 L -1.421875 0 L 15.5 -41.90625 Z M 24.640625 -16.765625 L 19.96875 -28.953125 L 19.859375 -28.953125 L 15.1875 -16.765625 Z M 24.640625 -16.765625 "/></g></g></g><g fill="#ffffff" fill-opacity="1"><g transform="translate(160.234022, 198.595036)"><g><path d="M 40.9375 -23.46875 L 40.9375 -14.375 C 39.851562 -9.394531 37.484375 -5.625 33.828125 -3.0625 C 30.171875 -0.507812 26.09375 0.765625 21.59375 0.765625 C 15.9375 0.765625 11.117188 -1.347656 7.140625 -5.578125 C 3.160156 -9.816406 1.171875 -14.929688 1.171875 -20.921875 C 1.171875 -27.023438 3.117188 -32.175781 7.015625 -36.375 C 10.910156 -40.570312 15.769531 -42.671875 21.59375 -42.671875 C 28.394531 -42.671875 33.773438 -40.28125 37.734375 -35.5 L 31.5 -28.65625 C 29.257812 -32.238281 26.140625 -34.03125 22.140625 -34.03125 C 19.203125 -34.03125 16.691406 -32.75 14.609375 -30.1875 C 12.523438 -27.632812 11.484375 -24.546875 11.484375 -20.921875 C 11.484375 -17.367188 12.523438 -14.332031 14.609375 -11.8125 C 16.691406 -9.289062 19.203125 -8.03125 22.140625 -8.03125 C 24.585938 -8.03125 26.710938 -8.765625 28.515625 -10.234375 C 30.328125 -11.703125 31.234375 -13.660156 31.234375 -16.109375 L 21.59375 -16.109375 L 21.59375 -23.46875 Z M 40.9375 -23.46875 "/></g></g></g><g fill="#ffffff" fill-opacity="1"><g transform="translate(202.338149, 198.595036)"><g><path d="M 27.03125 -41.90625 L 27.03125 -33.53125 L 12.59375 -33.53125 L 12.59375 -25.1875 L 26.421875 -25.1875 L 26.421875 -16.8125 L 12.59375 -16.8125 L 12.59375 -8.375 L 27.03125 -8.375 L 27.03125 0 L 3.046875 0 L 3.046875 -41.90625 Z M 27.03125 -41.90625 "/></g></g></g><g clip-path="url(#6795675bac)"><g clip-path="url(#c34933491d)"><g clip-path="url(#048d53deef)"><path fill="#1b2123" d="M 109.132812 153.53125 C 104.421875 155.480469 99.578125 158.597656 95.492188 162.308594 C 93.460938 164.15625 91.664062 166.101562 90.15625 168.09375 L 89.386719 169.109375 L 86.179688 161.925781 C 84.761719 162.878906 81.644531 164.535156 78.324219 163.492188 C 76.714844 162.988281 75.644531 162.171875 75.046875 161 C 74.269531 159.460938 73.222656 155.007812 77.453125 151.484375 C 80.546875 148.671875 85.449219 148.023438 86.46875 147.914062 C 86.800781 147.703125 87.105469 147.476562 87.390625 147.21875 C 88.53125 146.179688 89.214844 144.78125 90.003906 143.164062 C 91.132812 140.851562 92.535156 137.976562 95.863281 134.949219 C 96.273438 134.578125 96.710938 134.207031 97.164062 133.84375 C 101.101562 130.6875 104.25 129.546875 106.789062 130.359375 C 107.914062 130.71875 110.832031 132.699219 111.875 136.457031 C 112.472656 138.445312 111.839844 140.554688 110.710938 142.667969 C 110.175781 143.664062 109.148438 145.210938 107.277344 146.914062 C 106.765625 147.378906 106.300781 147.75 105.953125 148.019531 L 110.054688 153.152344 Z M 109.132812 153.53125 " fill-opacity="1" fill-rule="nonzero"/></g></g></g><g clip-path="url(#c807f2eb4c)"><g clip-path="url(#8d7ec21755)"><g clip-path="url(#a06fcb805a)"><path fill="#ffffff" d="M 110.785156 136.695312 C 111.4375 138.855469 110.859375 140.902344 109.855469 142.636719 C 108.054688 145.75 104.867188 147.867188 104.867188 147.867188 L 108.835938 152.832031 C 107.015625 153.585938 105.175781 154.507812 103.367188 155.570312 C 98.101562 158.664062 93.105469 162.9375 89.550781 167.628906 L 86.484375 160.757812 C 86.484375 160.757812 82.617188 164.046875 78.542969 162.769531 C 75.949219 161.957031 74.433594 159.242188 75.746094 155.070312 C 77.679688 149.539062 86.722656 148.652344 86.722656 148.652344 C 91.226562 145.980469 90.023438 140.542969 97.640625 134.441406 C 105.230469 128.355469 108.972656 130.664062 110.785156 136.695312 Z M 110.785156 136.695312 " fill-opacity="1" fill-rule="nonzero"/></g></g></g><g clip-path="url(#09b8026e17)"><g clip-path="url(#8ef58d4f42)"><g clip-path="url(#617c006d65)"><path fill="#ffffff" d="M 86.015625 160.878906 C 86.015625 160.878906 82.933594 162.417969 81.113281 162.226562 C 79.25 162.035156 78.519531 161.183594 78.878906 161.152344 C 79.238281 161.121094 81.011719 161.679688 81.8125 160.851562 C 82.617188 160.023438 80.539062 159.449219 81.523438 159.144531 C 82.511719 158.839844 83.933594 159.125 84.835938 159.582031 C 85.742188 160.042969 86.015625 160.878906 86.015625 160.878906 Z M 86.015625 160.878906 " fill-opacity="1" fill-rule="nonzero"/></g></g></g><g clip-path="url(#7d1631308b)"><g clip-path="url(#da47ab7a5a)"><g clip-path="url(#9faa4fd1e9)"><path fill="#ffffff" d="M 89.285156 147.277344 C 89.285156 147.277344 91.269531 145.90625 92.613281 143.242188 C 93.953125 140.582031 95.199219 138.933594 95.765625 139.554688 C 96.328125 140.175781 96.371094 141.785156 94.289062 144.191406 C 92.207031 146.601562 89.285156 147.277344 89.285156 147.277344 Z M 89.285156 147.277344 " fill-opacity="1" fill-rule="nonzero"/></g></g></g><g clip-path="url(#9b70406e81)"><g clip-path="url(#677cc96bfa)"><g clip-path="url(#7c402440d5)"><path fill="#ffffff" d="M 110.246094 139.972656 C 110.238281 140.03125 110.027344 141.613281 109.855469 142.636719 C 108.054688 145.75 104.867188 147.867188 104.867188 147.867188 L 108.835938 152.832031 C 107.011719 153.585938 105.175781 154.507812 103.367188 155.570312 C 103.660156 154.964844 103.738281 154.199219 103.304688 153.269531 C 102.015625 150.503906 100.621094 149.269531 100.621094 149.269531 C 100.621094 149.269531 99.027344 152.941406 96.800781 154.40625 C 94.59375 155.863281 89.761719 155.328125 89.6875 155.316406 C 89.730469 155.292969 91.988281 154.058594 93.03125 152.972656 C 94.089844 151.875 94.089844 151.875 94.089844 151.875 C 92.359375 151.207031 90.761719 150.527344 91.726562 149.578125 C 91.726562 149.578125 97.1875 150.308594 101.527344 144.839844 C 105.863281 139.371094 104.300781 137.042969 106.375 137.519531 C 108.449219 137.996094 107.300781 143.0625 108.484375 142.40625 C 109.648438 141.757812 110.226562 140.035156 110.246094 139.972656 Z M 110.246094 139.972656 " fill-opacity="1" fill-rule="nonzero"/></g></g></g><g clip-path="url(#463e3fff34)"><g clip-path="url(#ee486a1f13)"><g clip-path="url(#ef5b329217)"><path fill="#1b2123" d="M 84.132812 149.03125 C 84.132812 149.03125 87.167969 148.921875 89.550781 148.027344 C 91.929688 147.128906 93.035156 145.140625 93.035156 145.140625 C 93.035156 145.140625 90.925781 146.636719 89.289062 147.277344 C 87.648438 147.921875 87.28125 147.976562 87.28125 147.976562 Z M 84.132812 149.03125 " fill-opacity="1" fill-rule="nonzero"/></g></g></g><g clip-path="url(#202e688736)"><g clip-path="url(#73f38bd6eb)"><g clip-path="url(#4eaab84174)"><path fill="#1b2123" d="M 103.625 145.714844 C 103.683594 146.207031 104.863281 147.828125 105.792969 149.015625 L 105.953125 148.019531 C 105.253906 147.1875 104.675781 146.433594 104.199219 145.75 Z M 103.625 145.714844 " fill-opacity="1" fill-rule="nonzero"/></g></g></g><g clip-path="url(#f544c53564)"><g clip-path="url(#70e3f0ef5f)"><g clip-path="url(#558d6c3390)"><path fill="#1b2123" d="M 106.625 139.992188 C 106.625 139.992188 106.738281 143.140625 102.390625 146.628906 C 98.039062 150.117188 94.34375 150.683594 94.34375 150.683594 C 94.34375 150.683594 98.1875 150.8125 102.394531 147.878906 C 104.996094 145.976562 104.304688 146.476562 105.578125 144.742188 C 106.851562 143.007812 106.625 139.992188 106.625 139.992188 Z M 106.625 139.992188 " fill-opacity="1" fill-rule="nonzero"/></g></g></g><g clip-path="url(#c059f1930a)"><g clip-path="url(#879d0a4314)"><g clip-path="url(#1539714f0b)"><path fill="#1b2123" d="M 96.667969 150.214844 C 95.777344 152.738281 92.722656 155.316406 89.433594 155.980469 C 89.433594 155.980469 90.726562 156.410156 93.59375 154.953125 C 96.457031 153.5 98.105469 149.707031 98.105469 149.707031 Z M 96.667969 150.214844 " fill-opacity="1" fill-rule="nonzero"/></g></g></g><g clip-path="url(#f586849dee)"><g clip-path="url(#309d6cbaed)"><g clip-path="url(#96afeac8e7)"><path fill="#1b2123" d="M 86.800781 161.683594 C 86.765625 161.460938 86.621094 160.75 86.15625 160.238281 C 85.695312 159.730469 83.066406 159.496094 83.066406 159.496094 C 83.066406 159.496094 84.800781 160.121094 85.355469 160.546875 C 85.90625 160.972656 86.179688 161.925781 86.179688 161.925781 Z M 86.800781 161.683594 " fill-opacity="1" fill-rule="nonzero"/></g></g></g><g clip-path="url(#cca81345dc)"><path fill="#22c8aa" d="M 296.148438 178.953125 C 296.148438 178.953125 285.546875 185.679688 277.8125 181.253906 C 270.078125 176.828125 264.925781 168.832031 262.710938 169.230469 C 261.433594 169.460938 258.65625 172.476562 258.308594 172.914062 C 257.957031 173.363281 257.527344 173.910156 257.058594 174.558594 C 256.585938 175.199219 256.070312 175.9375 255.523438 176.75 C 255.257812 177.164062 254.96875 177.585938 254.691406 178.035156 C 254.550781 178.257812 254.40625 178.488281 254.261719 178.71875 C 254.121094 178.953125 253.976562 179.1875 253.835938 179.429688 C 253.539062 179.90625 253.261719 180.414062 252.96875 180.925781 C 252.683594 181.441406 252.398438 181.96875 252.117188 182.511719 C 251.84375 183.058594 251.550781 183.605469 251.289062 184.175781 C 251.15625 184.460938 251.019531 184.746094 250.882812 185.035156 C 250.757812 185.324219 250.628906 185.617188 250.5 185.910156 C 250.238281 186.492188 250.011719 187.097656 249.769531 187.695312 C 249.644531 187.996094 249.542969 188.300781 249.429688 188.605469 L 249.101562 189.519531 L 248.808594 190.445312 C 248.710938 190.753906 248.605469 191.058594 248.523438 191.371094 C 248.359375 191.992188 248.171875 192.605469 248.039062 193.226562 C 247.96875 193.535156 247.898438 193.84375 247.828125 194.148438 C 247.757812 194.457031 247.710938 194.765625 247.652344 195.070312 C 247.597656 195.375 247.539062 195.675781 247.488281 195.976562 C 247.449219 196.28125 247.410156 196.582031 247.367188 196.878906 C 247.332031 197.175781 247.277344 197.472656 247.257812 197.765625 C 247.234375 198.058594 247.210938 198.347656 247.191406 198.636719 C 247.128906 199.210938 247.125 199.773438 247.113281 200.320312 C 247.109375 200.59375 247.085938 200.863281 247.101562 201.132812 C 247.109375 201.394531 247.117188 201.65625 247.125 201.914062 C 247.136719 202.171875 247.144531 202.421875 247.152344 202.671875 C 247.175781 202.917969 247.199219 203.160156 247.21875 203.394531 C 247.242188 203.632812 247.265625 203.863281 247.285156 204.089844 C 247.296875 204.203125 247.304688 204.316406 247.320312 204.425781 C 247.335938 204.535156 247.355469 204.640625 247.371094 204.75 C 247.441406 205.175781 247.507812 205.578125 247.566406 205.960938 C 247.589844 206.148438 247.644531 206.328125 247.683594 206.503906 C 247.722656 206.679688 247.761719 206.847656 247.800781 207.011719 C 247.878906 207.332031 247.9375 207.632812 248.011719 207.898438 C 248.332031 208.953125 248.515625 209.550781 248.515625 209.550781 L 248.539062 209.632812 C 248.734375 210.273438 248.375 210.949219 247.734375 211.144531 C 247.09375 211.339844 246.417969 210.980469 246.222656 210.339844 C 246.21875 210.324219 246.210938 210.304688 246.207031 210.289062 C 246.207031 210.289062 246.035156 209.621094 245.734375 208.457031 C 245.671875 208.164062 245.617188 207.832031 245.550781 207.480469 C 245.519531 207.300781 245.484375 207.117188 245.449219 206.921875 C 245.417969 206.730469 245.367188 206.535156 245.351562 206.324219 C 245.304688 205.910156 245.253906 205.46875 245.199219 205.003906 C 245.183594 204.886719 245.171875 204.769531 245.15625 204.652344 C 245.148438 204.53125 245.144531 204.410156 245.136719 204.289062 C 245.125 204.042969 245.113281 203.792969 245.101562 203.535156 C 245.089844 203.28125 245.074219 203.019531 245.0625 202.753906 C 245.066406 202.488281 245.070312 202.214844 245.070312 201.941406 C 245.074219 201.664062 245.078125 201.386719 245.082031 201.101562 C 245.082031 200.816406 245.117188 200.53125 245.132812 200.238281 C 245.175781 199.65625 245.207031 199.058594 245.296875 198.453125 C 245.335938 198.148438 245.375 197.84375 245.414062 197.535156 C 245.449219 197.222656 245.519531 196.914062 245.570312 196.605469 C 245.628906 196.292969 245.683594 195.976562 245.742188 195.660156 C 245.804688 195.347656 245.882812 195.03125 245.957031 194.714844 C 246.03125 194.398438 246.097656 194.078125 246.179688 193.761719 C 246.269531 193.445312 246.359375 193.128906 246.445312 192.808594 C 246.613281 192.167969 246.835938 191.539062 247.039062 190.902344 C 247.136719 190.585938 247.257812 190.273438 247.375 189.957031 L 247.722656 189.015625 L 248.101562 188.089844 C 248.234375 187.78125 248.351562 187.46875 248.492188 187.167969 C 248.769531 186.5625 249.03125 185.957031 249.328125 185.371094 C 249.472656 185.078125 249.621094 184.785156 249.761719 184.492188 C 249.914062 184.207031 250.066406 183.917969 250.214844 183.636719 C 250.507812 183.0625 250.832031 182.515625 251.136719 181.972656 C 251.449219 181.433594 251.765625 180.910156 252.078125 180.398438 C 252.398438 179.894531 252.703125 179.394531 253.023438 178.921875 C 253.183594 178.683594 253.339844 178.449219 253.492188 178.21875 C 253.648438 177.992188 253.804688 177.769531 253.957031 177.546875 C 254.257812 177.105469 254.570312 176.691406 254.859375 176.285156 C 255.449219 175.488281 256.007812 174.765625 256.515625 174.136719 C 257.015625 173.507812 257.476562 172.972656 257.851562 172.53125 C 258.175781 172.164062 258.441406 171.863281 258.648438 171.640625 C 258.648438 171.640625 257.996094 167.929688 256.984375 166.730469 C 255.230469 164.65625 246.714844 167.488281 237.703125 165.230469 C 228.6875 162.976562 222.703125 148.894531 222.703125 148.894531 C 222.703125 148.894531 229.671875 148.898438 238.101562 148.535156 C 248.921875 148.066406 255.863281 161.707031 257.550781 165.738281 C 258.558594 168.148438 259.007812 169.925781 259.207031 170.964844 C 259.804688 170.300781 260.914062 169.242188 262.71875 168.078125 C 265.734375 166.136719 276.859375 160.402344 284.765625 168.15625 C 290.925781 174.195312 296.148438 178.953125 296.148438 178.953125 " fill-opacity="1" fill-rule="nonzero"/></g><path fill="#ffffff" d="M 270.460938 172.378906 C 270.425781 172.308594 270.386719 172.230469 270.34375 172.144531 C 270.300781 172.0625 270.265625 171.964844 270.226562 171.863281 C 270.179688 171.761719 270.144531 171.652344 270.109375 171.539062 C 270.070312 171.425781 270.042969 171.308594 270.011719 171.183594 C 269.976562 171.066406 269.957031 170.941406 269.933594 170.816406 C 269.886719 170.566406 269.855469 170.3125 269.835938 170.078125 C 269.816406 169.839844 269.8125 169.617188 269.8125 169.425781 C 269.8125 169.046875 269.84375 168.796875 269.84375 168.796875 L 269.753906 168.789062 C 269.753906 168.789062 269.726562 169.046875 269.734375 169.429688 C 269.738281 169.621094 269.75 169.84375 269.773438 170.082031 C 269.796875 170.320312 269.832031 170.574219 269.886719 170.824219 C 269.914062 170.949219 269.9375 171.074219 269.976562 171.195312 C 270.007812 171.316406 270.039062 171.4375 270.082031 171.546875 C 270.121094 171.660156 270.160156 171.769531 270.203125 171.871094 C 270.25 171.972656 270.285156 172.070312 270.332031 172.152344 C 270.375 172.238281 270.417969 172.3125 270.453125 172.382812 C 270.492188 172.449219 270.527344 172.507812 270.558594 172.554688 C 270.617188 172.648438 270.652344 172.703125 270.652344 172.703125 C 270.652344 172.703125 270.621094 172.648438 270.5625 172.550781 C 270.535156 172.503906 270.5 172.445312 270.460938 172.378906 Z M 280.660156 179.441406 L 280.722656 179.375 C 280.726562 179.375 280.699219 179.390625 280.679688 179.386719 C 280.667969 179.382812 280.664062 179.378906 280.65625 179.371094 C 280.664062 179.378906 280.667969 179.386719 280.671875 179.394531 C 280.675781 179.417969 280.660156 179.445312 280.660156 179.441406 Z M 280.632812 179.347656 C 280.640625 179.355469 280.648438 179.363281 280.65625 179.371094 C 280.648438 179.363281 280.640625 179.355469 280.632812 179.347656 Z M 292.082031 178.621094 C 291.175781 178.582031 289.878906 178.414062 288.382812 177.980469 C 288.28125 177.953125 288.175781 177.917969 288.074219 177.886719 C 288.09375 177.863281 288.121094 177.839844 288.152344 177.804688 C 288.195312 177.761719 288.246094 177.707031 288.316406 177.65625 C 288.390625 177.605469 288.460938 177.539062 288.554688 177.484375 C 288.644531 177.429688 288.742188 177.367188 288.851562 177.308594 C 288.964844 177.257812 289.078125 177.195312 289.203125 177.144531 C 289.332031 177.101562 289.457031 177.039062 289.59375 177 C 289.730469 176.957031 289.867188 176.910156 290.007812 176.878906 C 290.144531 176.839844 290.285156 176.804688 290.425781 176.777344 C 290.5625 176.746094 290.703125 176.722656 290.835938 176.695312 C 291.101562 176.652344 291.351562 176.617188 291.566406 176.597656 C 292 176.550781 292.289062 176.542969 292.289062 176.542969 C 292.289062 176.542969 292 176.546875 291.566406 176.582031 C 291.351562 176.601562 291.097656 176.628906 290.828125 176.667969 C 290.695312 176.691406 290.558594 176.710938 290.417969 176.738281 C 290.277344 176.765625 290.136719 176.796875 289.996094 176.832031 C 289.851562 176.863281 289.714844 176.90625 289.578125 176.949219 C 289.441406 176.984375 289.308594 177.042969 289.179688 177.085938 C 289.054688 177.136719 288.933594 177.195312 288.820312 177.246094 C 288.707031 177.300781 288.605469 177.363281 288.511719 177.417969 C 288.417969 177.472656 288.339844 177.539062 288.265625 177.589844 C 288.191406 177.640625 288.136719 177.695312 288.089844 177.742188 C 288.035156 177.792969 287.996094 177.832031 287.972656 177.855469 C 286.582031 177.417969 285.054688 176.746094 283.535156 175.839844 C 283.453125 175.792969 283.375 175.738281 283.296875 175.691406 C 283.34375 175.628906 283.480469 175.449219 283.707031 175.234375 C 283.773438 175.164062 283.855469 175.09375 283.9375 175.019531 C 284.023438 174.945312 284.117188 174.875 284.214844 174.800781 C 284.316406 174.730469 284.414062 174.652344 284.527344 174.589844 C 284.636719 174.523438 284.746094 174.457031 284.867188 174.398438 C 284.925781 174.371094 284.984375 174.339844 285.042969 174.3125 C 285.101562 174.289062 285.164062 174.265625 285.222656 174.242188 C 285.339844 174.1875 285.460938 174.15625 285.578125 174.121094 C 285.695312 174.082031 285.8125 174.0625 285.921875 174.039062 C 285.976562 174.027344 286.03125 174.015625 286.082031 174.007812 C 286.136719 174.003906 286.1875 173.996094 286.238281 173.992188 C 286.335938 173.984375 286.421875 173.96875 286.503906 173.96875 C 286.582031 173.96875 286.652344 173.96875 286.710938 173.972656 C 286.824219 173.972656 286.890625 173.972656 286.890625 173.972656 C 286.890625 173.972656 286.824219 173.96875 286.710938 173.96875 C 286.652344 173.964844 286.582031 173.964844 286.503906 173.960938 C 286.421875 173.960938 286.332031 173.972656 286.234375 173.980469 C 286.1875 173.980469 286.132812 173.984375 286.082031 173.992188 C 286.027344 173.996094 285.976562 174.007812 285.917969 174.019531 C 285.808594 174.039062 285.6875 174.054688 285.570312 174.09375 C 285.453125 174.125 285.328125 174.15625 285.207031 174.207031 C 285.148438 174.230469 285.085938 174.253906 285.023438 174.273438 C 284.964844 174.300781 284.90625 174.332031 284.847656 174.359375 C 284.726562 174.410156 284.609375 174.476562 284.5 174.542969 C 284.382812 174.605469 284.28125 174.679688 284.175781 174.746094 C 284.078125 174.824219 283.980469 174.890625 283.894531 174.964844 C 283.804688 175.035156 283.722656 175.105469 283.652344 175.175781 C 283.410156 175.398438 283.261719 175.585938 283.21875 175.640625 C 282.488281 175.191406 281.765625 174.691406 281.0625 174.148438 C 280.652344 173.839844 280.261719 173.5 279.863281 173.160156 C 279.863281 173.15625 279.863281 173.152344 279.863281 173.148438 C 279.867188 173.117188 279.878906 173.070312 279.894531 173.015625 C 279.910156 172.957031 279.929688 172.886719 279.957031 172.8125 C 279.988281 172.734375 280.027344 172.648438 280.074219 172.558594 C 280.121094 172.46875 280.175781 172.375 280.246094 172.28125 C 280.28125 172.234375 280.316406 172.183594 280.355469 172.136719 C 280.394531 172.089844 280.4375 172.046875 280.484375 172 C 280.566406 171.902344 280.679688 171.828125 280.78125 171.742188 C 280.894531 171.671875 281.003906 171.585938 281.128906 171.53125 C 281.253906 171.476562 281.371094 171.40625 281.503906 171.371094 C 281.632812 171.332031 281.757812 171.28125 281.882812 171.261719 C 282.011719 171.238281 282.132812 171.203125 282.25 171.191406 C 282.367188 171.179688 282.476562 171.167969 282.582031 171.160156 C 282.683594 171.144531 282.777344 171.144531 282.863281 171.148438 C 282.945312 171.148438 283.019531 171.148438 283.082031 171.148438 C 283.203125 171.148438 283.269531 171.148438 283.269531 171.148438 C 283.269531 171.148438 283.203125 171.144531 283.082031 171.140625 C 283.019531 171.140625 282.945312 171.140625 282.863281 171.136719 C 282.777344 171.136719 282.683594 171.132812 282.582031 171.144531 C 282.476562 171.152344 282.363281 171.160156 282.246094 171.167969 C 282.128906 171.179688 282.003906 171.210938 281.878906 171.230469 C 281.75 171.246094 281.621094 171.296875 281.492188 171.335938 C 281.359375 171.367188 281.234375 171.4375 281.105469 171.488281 C 280.980469 171.542969 280.867188 171.628906 280.746094 171.695312 C 280.640625 171.785156 280.527344 171.855469 280.4375 171.953125 C 280.390625 172 280.34375 172.046875 280.300781 172.09375 C 280.261719 172.140625 280.226562 172.191406 280.1875 172.238281 C 280.113281 172.332031 280.054688 172.429688 280.003906 172.523438 C 279.953125 172.613281 279.910156 172.699219 279.878906 172.78125 C 279.847656 172.859375 279.828125 172.933594 279.808594 172.992188 C 279.796875 173.03125 279.789062 173.0625 279.78125 173.09375 C 279.414062 172.78125 279.042969 172.472656 278.648438 172.1875 C 277.347656 171.230469 275.914062 170.46875 274.46875 169.898438 C 274.480469 169.859375 274.5 169.792969 274.535156 169.699219 C 274.585938 169.550781 274.671875 169.335938 274.792969 169.089844 C 274.921875 168.847656 275.082031 168.570312 275.296875 168.304688 C 275.402344 168.167969 275.523438 168.039062 275.652344 167.914062 C 275.78125 167.789062 275.921875 167.667969 276.074219 167.570312 C 276.222656 167.464844 276.382812 167.378906 276.546875 167.304688 C 276.714844 167.234375 276.882812 167.171875 277.050781 167.136719 C 277.132812 167.113281 277.214844 167.097656 277.296875 167.089844 C 277.378906 167.074219 277.457031 167.0625 277.539062 167.0625 C 277.695312 167.046875 277.84375 167.054688 277.980469 167.054688 C 278.121094 167.070312 278.246094 167.074219 278.355469 167.097656 C 278.464844 167.117188 278.5625 167.128906 278.640625 167.152344 C 278.796875 167.191406 278.886719 167.210938 278.886719 167.210938 C 278.886719 167.210938 278.796875 167.1875 278.640625 167.148438 C 278.5625 167.125 278.46875 167.113281 278.355469 167.089844 C 278.246094 167.066406 278.121094 167.058594 277.984375 167.042969 C 277.84375 167.039062 277.695312 167.027344 277.535156 167.039062 C 277.457031 167.042969 277.375 167.050781 277.292969 167.0625 C 277.210938 167.070312 277.128906 167.085938 277.042969 167.109375 C 276.871094 167.140625 276.703125 167.199219 276.53125 167.269531 C 276.367188 167.339844 276.203125 167.425781 276.046875 167.53125 C 275.890625 167.628906 275.75 167.75 275.613281 167.871094 C 275.480469 168 275.355469 168.128906 275.246094 168.265625 C 275.027344 168.53125 274.855469 168.8125 274.726562 169.054688 C 274.519531 169.449219 274.414062 169.757812 274.382812 169.867188 C 273.984375 169.710938 273.585938 169.566406 273.1875 169.441406 C 271.769531 168.992188 270.382812 168.71875 269.117188 168.558594 C 269.132812 168.535156 269.152344 168.503906 269.175781 168.460938 C 269.207031 168.417969 269.238281 168.363281 269.277344 168.296875 C 269.320312 168.234375 269.359375 168.160156 269.414062 168.085938 C 269.464844 168.011719 269.523438 167.933594 269.585938 167.847656 C 269.644531 167.757812 269.710938 167.671875 269.785156 167.585938 C 269.859375 167.5 269.929688 167.402344 270.015625 167.320312 C 270.101562 167.234375 270.179688 167.140625 270.273438 167.0625 C 270.367188 166.984375 270.449219 166.894531 270.550781 166.828125 C 270.601562 166.792969 270.648438 166.757812 270.695312 166.722656 C 270.746094 166.691406 270.796875 166.664062 270.84375 166.636719 C 270.941406 166.574219 271.046875 166.535156 271.140625 166.488281 C 271.242188 166.457031 271.332031 166.421875 271.425781 166.40625 C 271.511719 166.382812 271.597656 166.378906 271.671875 166.371094 C 271.746094 166.371094 271.8125 166.371094 271.863281 166.378906 C 271.972656 166.390625 272.027344 166.414062 272.027344 166.414062 C 272.027344 166.414062 271.972656 166.390625 271.863281 166.375 C 271.8125 166.367188 271.746094 166.363281 271.671875 166.363281 C 271.597656 166.367188 271.511719 166.371094 271.421875 166.390625 C 271.328125 166.402344 271.234375 166.4375 271.132812 166.46875 C 271.039062 166.511719 270.929688 166.550781 270.832031 166.609375 C 270.78125 166.636719 270.726562 166.664062 270.679688 166.695312 C 270.628906 166.730469 270.578125 166.765625 270.53125 166.796875 C 270.425781 166.863281 270.335938 166.949219 270.242188 167.027344 C 270.144531 167.105469 270.0625 167.199219 269.976562 167.28125 C 269.886719 167.363281 269.8125 167.460938 269.738281 167.546875 C 269.660156 167.632812 269.589844 167.71875 269.527344 167.804688 C 269.464844 167.890625 269.402344 167.96875 269.347656 168.042969 C 269.292969 168.117188 269.25 168.191406 269.207031 168.253906 C 269.167969 168.316406 269.132812 168.371094 269.101562 168.414062 C 269.054688 168.484375 269.027344 168.53125 269.015625 168.550781 C 268.648438 168.503906 268.289062 168.46875 267.945312 168.441406 C 267.167969 168.378906 266.449219 168.363281 265.8125 168.367188 C 265.179688 168.371094 264.625 168.398438 264.171875 168.433594 C 263.261719 168.5 262.75 168.59375 262.75 168.59375 C 262.75 168.59375 263.265625 168.511719 264.175781 168.460938 C 264.628906 168.4375 265.179688 168.421875 265.8125 168.429688 C 266.449219 168.4375 267.160156 168.472656 267.9375 168.539062 C 269.351562 168.667969 270.976562 168.9375 272.652344 169.441406 C 272.652344 169.449219 272.648438 169.457031 272.648438 169.464844 C 272.625 169.53125 272.605469 169.632812 272.578125 169.761719 C 272.554688 169.890625 272.523438 170.046875 272.507812 170.226562 C 272.5 170.316406 272.488281 170.414062 272.480469 170.511719 C 272.476562 170.613281 272.472656 170.722656 272.46875 170.835938 C 272.460938 170.945312 272.472656 171.0625 272.476562 171.183594 C 272.484375 171.300781 272.480469 171.425781 272.5 171.554688 C 272.515625 171.679688 272.53125 171.8125 272.546875 171.945312 C 272.5625 172.078125 272.597656 172.210938 272.625 172.347656 C 272.667969 172.621094 272.765625 172.894531 272.847656 173.175781 C 272.882812 173.316406 272.949219 173.449219 273.003906 173.585938 C 273.058594 173.722656 273.109375 173.863281 273.175781 173.996094 C 273.242188 174.128906 273.3125 174.261719 273.378906 174.390625 C 273.449219 174.523438 273.507812 174.65625 273.59375 174.777344 C 273.675781 174.898438 273.753906 175.019531 273.832031 175.140625 C 273.910156 175.257812 273.980469 175.382812 274.070312 175.488281 C 274.242188 175.703125 274.410156 175.914062 274.570312 176.113281 C 274.746094 176.296875 274.910156 176.472656 275.0625 176.632812 C 275.140625 176.714844 275.214844 176.789062 275.285156 176.863281 C 275.355469 176.933594 275.429688 176.996094 275.5 177.054688 C 275.632812 177.171875 275.753906 177.277344 275.851562 177.363281 C 276.046875 177.53125 276.15625 177.628906 276.15625 177.628906 C 276.15625 177.628906 276.046875 177.53125 275.851562 177.359375 C 275.757812 177.273438 275.640625 177.167969 275.503906 177.046875 C 275.4375 176.988281 275.363281 176.925781 275.292969 176.855469 C 275.222656 176.78125 275.148438 176.703125 275.074219 176.625 C 274.921875 176.460938 274.757812 176.285156 274.585938 176.101562 C 274.429688 175.898438 274.265625 175.6875 274.09375 175.46875 C 274.003906 175.363281 273.9375 175.238281 273.859375 175.121094 C 273.78125 175 273.703125 174.878906 273.625 174.757812 C 273.542969 174.636719 273.484375 174.5 273.417969 174.371094 C 273.351562 174.242188 273.285156 174.109375 273.214844 173.976562 C 273.152344 173.84375 273.105469 173.703125 273.050781 173.570312 C 273 173.429688 272.933594 173.296875 272.898438 173.15625 C 272.820312 172.878906 272.726562 172.609375 272.683594 172.335938 C 272.660156 172.199219 272.628906 172.066406 272.613281 171.933594 C 272.597656 171.800781 272.585938 171.671875 272.570312 171.546875 C 272.554688 171.421875 272.558594 171.296875 272.550781 171.179688 C 272.550781 171.058594 272.539062 170.945312 272.546875 170.835938 C 272.554688 170.726562 272.558594 170.621094 272.5625 170.519531 C 272.570312 170.417969 272.582031 170.324219 272.589844 170.234375 C 272.605469 170.058594 272.644531 169.90625 272.664062 169.777344 C 272.691406 169.652344 272.714844 169.554688 272.734375 169.492188 C 272.738281 169.480469 272.738281 169.476562 272.742188 169.46875 C 272.875 169.507812 273.007812 169.546875 273.140625 169.589844 C 274.523438 170.039062 275.933594 170.660156 277.253906 171.464844 C 277.289062 171.652344 277.378906 172.113281 277.53125 172.730469 C 277.585938 172.929688 277.640625 173.148438 277.703125 173.378906 C 277.769531 173.605469 277.828125 173.851562 277.90625 174.097656 C 277.980469 174.347656 278.058594 174.605469 278.148438 174.863281 C 278.234375 175.121094 278.332031 175.382812 278.429688 175.640625 C 278.519531 175.902344 278.636719 176.15625 278.738281 176.40625 C 278.84375 176.660156 278.96875 176.898438 279.078125 177.132812 C 279.195312 177.363281 279.320312 177.582031 279.4375 177.789062 C 279.558594 177.996094 279.683594 178.179688 279.796875 178.355469 C 279.914062 178.527344 280.039062 178.671875 280.140625 178.808594 C 280.238281 178.945312 280.34375 179.046875 280.429688 179.136719 C 280.511719 179.222656 280.578125 179.289062 280.625 179.335938 C 280.628906 179.339844 280.628906 179.34375 280.632812 179.347656 C 280.628906 179.34375 280.628906 179.339844 280.625 179.335938 C 280.578125 179.289062 280.515625 179.222656 280.429688 179.132812 C 280.347656 179.046875 280.242188 178.941406 280.144531 178.804688 C 280.042969 178.667969 279.921875 178.523438 279.804688 178.351562 C 279.695312 178.175781 279.570312 177.988281 279.449219 177.785156 C 279.335938 177.574219 279.210938 177.355469 279.097656 177.125 C 278.988281 176.886719 278.867188 176.648438 278.761719 176.398438 C 278.660156 176.144531 278.546875 175.890625 278.457031 175.628906 C 278.359375 175.371094 278.265625 175.109375 278.183594 174.851562 C 278.097656 174.59375 278.023438 174.335938 277.949219 174.085938 C 277.871094 173.839844 277.8125 173.59375 277.75 173.363281 C 277.695312 173.132812 277.640625 172.914062 277.59375 172.714844 C 277.472656 172.171875 277.394531 171.753906 277.355469 171.53125 C 277.761719 171.78125 278.160156 172.046875 278.542969 172.335938 C 279.378906 172.945312 280.125 173.671875 280.953125 174.289062 C 281.367188 174.605469 281.789062 174.910156 282.214844 175.195312 L 282.210938 175.199219 C 282.210938 175.199219 282.3125 175.566406 282.519531 176.097656 C 282.570312 176.230469 282.628906 176.375 282.691406 176.523438 C 282.753906 176.675781 282.828125 176.832031 282.902344 176.996094 C 282.980469 177.15625 283.058594 177.320312 283.144531 177.484375 C 283.238281 177.648438 283.320312 177.820312 283.421875 177.980469 C 283.515625 178.144531 283.613281 178.3125 283.714844 178.464844 C 283.816406 178.625 283.921875 178.773438 284.027344 178.917969 C 284.078125 178.988281 284.128906 179.058594 284.179688 179.128906 C 284.234375 179.195312 284.289062 179.261719 284.339844 179.324219 C 284.441406 179.453125 284.535156 179.574219 284.636719 179.675781 C 284.730469 179.78125 284.820312 179.875 284.898438 179.960938 C 284.984375 180.039062 285.054688 180.109375 285.117188 180.167969 C 285.238281 180.28125 285.304688 180.347656 285.304688 180.347656 C 285.304688 180.347656 285.238281 180.28125 285.117188 180.164062 C 285.058594 180.105469 284.988281 180.035156 284.90625 179.957031 C 284.828125 179.871094 284.742188 179.773438 284.644531 179.664062 C 284.550781 179.5625 284.457031 179.441406 284.355469 179.3125 C 284.304688 179.246094 284.253906 179.183594 284.203125 179.113281 C 284.152344 179.046875 284.101562 178.972656 284.050781 178.902344 C 283.945312 178.757812 283.847656 178.605469 283.75 178.445312 C 283.648438 178.289062 283.554688 178.125 283.460938 177.960938 C 283.363281 177.796875 283.285156 177.625 283.195312 177.460938 C 283.113281 177.292969 283.035156 177.128906 282.960938 176.96875 C 282.890625 176.804688 282.816406 176.648438 282.757812 176.496094 C 282.695312 176.347656 282.640625 176.203125 282.59375 176.070312 C 282.457031 175.699219 282.371094 175.414062 282.328125 175.273438 C 282.703125 175.519531 283.074219 175.757812 283.449219 175.980469 C 284.292969 176.480469 285.136719 176.910156 285.964844 177.257812 C 286.003906 177.273438 286.039062 177.285156 286.074219 177.300781 L 286.039062 177.316406 C 286.039062 177.316406 286.082031 177.390625 286.15625 177.515625 C 286.175781 177.546875 286.195312 177.582031 286.21875 177.621094 C 286.246094 177.65625 286.273438 177.695312 286.300781 177.734375 C 286.363281 177.816406 286.425781 177.914062 286.507812 178.003906 C 286.589844 178.097656 286.671875 178.207031 286.769531 178.308594 C 286.867188 178.414062 286.96875 178.523438 287.082031 178.632812 C 287.300781 178.851562 287.542969 179.074219 287.792969 179.289062 C 288.792969 180.15625 289.894531 180.882812 289.894531 180.882812 C 289.894531 180.882812 288.804688 180.136719 287.824219 179.253906 C 287.578125 179.035156 287.339844 178.808594 287.125 178.585938 C 287.015625 178.480469 286.917969 178.367188 286.824219 178.261719 C 286.726562 178.160156 286.648438 178.050781 286.570312 177.957031 C 286.488281 177.863281 286.429688 177.765625 286.371094 177.6875 C 286.34375 177.644531 286.316406 177.609375 286.292969 177.574219 C 286.269531 177.535156 286.25 177.5 286.234375 177.46875 C 286.199219 177.410156 286.175781 177.367188 286.15625 177.332031 C 286.917969 177.644531 287.65625 177.894531 288.351562 178.085938 C 289.109375 178.292969 289.8125 178.4375 290.441406 178.523438 C 291.074219 178.605469 291.625 178.644531 292.082031 178.652344 C 292.996094 178.671875 293.511719 178.585938 293.511719 178.585938 C 293.511719 178.585938 292.992188 178.660156 292.082031 178.621094 Z M 236.164062 161.386719 C 236.152344 161.386719 236.144531 161.390625 236.136719 161.390625 C 236.144531 161.386719 236.152344 161.386719 236.164062 161.386719 Z M 236.082031 161.339844 L 236.085938 161.441406 C 236.085938 161.441406 236.09375 161.410156 236.109375 161.394531 C 236.117188 161.390625 236.125 161.390625 236.136719 161.390625 C 236.125 161.390625 236.117188 161.390625 236.109375 161.382812 C 236.089844 161.371094 236.082031 161.339844 236.082031 161.339844 Z M 256.199219 165.003906 C 256.898438 165.714844 257.265625 166.152344 257.265625 166.152344 C 257.265625 166.152344 256.890625 165.722656 256.175781 165.023438 C 255.820312 164.675781 255.378906 164.257812 254.855469 163.800781 C 254.335938 163.335938 253.730469 162.835938 253.058594 162.308594 C 251.914062 161.414062 250.550781 160.460938 249 159.597656 C 249 159.601562 248.996094 159.605469 248.992188 159.613281 C 248.972656 159.644531 248.941406 159.6875 248.898438 159.742188 C 248.859375 159.792969 248.808594 159.859375 248.746094 159.929688 C 248.683594 160 248.609375 160.074219 248.53125 160.15625 C 248.367188 160.316406 248.164062 160.492188 247.9375 160.660156 C 247.820312 160.746094 247.699219 160.832031 247.578125 160.914062 C 247.449219 160.988281 247.324219 161.074219 247.191406 161.144531 C 247.054688 161.214844 246.925781 161.296875 246.789062 161.355469 C 246.65625 161.417969 246.527344 161.488281 246.394531 161.539062 C 246.261719 161.59375 246.136719 161.648438 246.019531 161.695312 C 245.894531 161.738281 245.78125 161.78125 245.671875 161.820312 C 245.460938 161.898438 245.277344 161.941406 245.152344 161.984375 C 245.027344 162.019531 244.953125 162.042969 244.953125 162.042969 C 244.953125 162.042969 245.027344 162.019531 245.152344 161.976562 C 245.273438 161.929688 245.457031 161.882812 245.664062 161.792969 C 245.769531 161.753906 245.882812 161.707031 246.003906 161.660156 C 246.121094 161.605469 246.246094 161.550781 246.371094 161.492188 C 246.5 161.433594 246.625 161.359375 246.757812 161.292969 C 246.890625 161.230469 247.015625 161.148438 247.144531 161.070312 C 247.277344 160.996094 247.394531 160.910156 247.519531 160.828125 C 247.640625 160.742188 247.753906 160.65625 247.863281 160.570312 C 248.082031 160.394531 248.273438 160.21875 248.425781 160.054688 C 248.5 159.972656 248.570312 159.898438 248.625 159.828125 C 248.683594 159.757812 248.730469 159.695312 248.769531 159.644531 C 248.804688 159.59375 248.832031 159.550781 248.847656 159.523438 C 248.851562 159.519531 248.851562 159.519531 248.855469 159.515625 C 248.625 159.386719 248.394531 159.265625 248.15625 159.144531 C 246.605469 158.34375 244.878906 157.65625 243.066406 157.257812 C 242.9375 157.394531 242.632812 157.714844 242.199219 158.117188 C 241.621094 158.652344 240.828125 159.34375 239.957031 159.925781 C 239.738281 160.074219 239.515625 160.214844 239.292969 160.34375 C 239.070312 160.476562 238.847656 160.597656 238.625 160.707031 C 238.40625 160.816406 238.1875 160.910156 237.980469 160.992188 C 237.871094 161.03125 237.769531 161.070312 237.667969 161.105469 C 237.570312 161.136719 237.46875 161.167969 237.375 161.195312 C 237.1875 161.246094 237.011719 161.292969 236.855469 161.316406 C 236.695312 161.347656 236.558594 161.359375 236.445312 161.371094 C 236.328125 161.386719 236.238281 161.382812 236.179688 161.386719 C 236.171875 161.386719 236.167969 161.386719 236.164062 161.386719 C 236.167969 161.386719 236.171875 161.386719 236.179688 161.386719 C 236.238281 161.382812 236.328125 161.382812 236.441406 161.371094 C 236.558594 161.355469 236.695312 161.34375 236.851562 161.3125 C 237.011719 161.285156 237.183594 161.238281 237.375 161.1875 C 237.46875 161.15625 237.566406 161.125 237.664062 161.09375 C 237.765625 161.058594 237.867188 161.019531 237.972656 160.980469 C 238.179688 160.894531 238.398438 160.796875 238.617188 160.6875 C 238.835938 160.574219 239.058594 160.453125 239.28125 160.320312 C 239.503906 160.191406 239.722656 160.046875 239.9375 159.898438 C 240.371094 159.605469 240.785156 159.28125 241.160156 158.96875 C 241.539062 158.652344 241.875 158.339844 242.152344 158.066406 C 242.539062 157.691406 242.816406 157.390625 242.957031 157.234375 C 242.589844 157.15625 242.21875 157.089844 241.847656 157.039062 C 240.726562 156.859375 239.585938 156.90625 238.453125 156.785156 C 237.910156 156.734375 237.371094 156.664062 236.839844 156.578125 C 236.824219 156.59375 236.554688 156.824219 236.117188 157.113281 C 236.003906 157.191406 235.878906 157.269531 235.746094 157.347656 C 235.617188 157.433594 235.472656 157.507812 235.324219 157.589844 C 235.175781 157.667969 235.019531 157.75 234.859375 157.824219 C 234.695312 157.894531 234.535156 157.976562 234.363281 158.039062 C 234.195312 158.105469 234.027344 158.167969 233.859375 158.21875 C 233.773438 158.246094 233.691406 158.273438 233.609375 158.300781 C 233.523438 158.320312 233.441406 158.34375 233.359375 158.363281 C 233.277344 158.386719 233.195312 158.40625 233.117188 158.425781 C 233.039062 158.441406 232.960938 158.453125 232.882812 158.46875 C 232.730469 158.496094 232.589844 158.523438 232.453125 158.535156 C 232.320312 158.546875 232.195312 158.5625 232.085938 158.570312 C 231.976562 158.574219 231.882812 158.578125 231.804688 158.578125 C 231.644531 158.582031 231.554688 158.582031 231.554688 158.582031 C 231.554688 158.582031 231.644531 158.578125 231.804688 158.574219 C 231.882812 158.570312 231.976562 158.566406 232.085938 158.5625 C 232.195312 158.550781 232.316406 158.535156 232.453125 158.519531 C 232.585938 158.507812 232.726562 158.476562 232.878906 158.445312 C 232.953125 158.429688 233.03125 158.414062 233.113281 158.398438 C 233.191406 158.378906 233.269531 158.355469 233.351562 158.335938 C 233.433594 158.3125 233.515625 158.289062 233.597656 158.265625 C 233.679688 158.238281 233.761719 158.210938 233.847656 158.179688 C 234.015625 158.128906 234.179688 158.058594 234.347656 157.992188 C 234.511719 157.925781 234.671875 157.84375 234.832031 157.769531 C 234.992188 157.695312 235.144531 157.609375 235.292969 157.53125 C 235.4375 157.445312 235.578125 157.367188 235.707031 157.285156 C 235.839844 157.203125 235.960938 157.121094 236.070312 157.046875 C 236.386719 156.828125 236.609375 156.644531 236.714844 156.554688 C 236.195312 156.46875 235.683594 156.363281 235.1875 156.242188 C 234.203125 156.003906 233.265625 155.707031 232.394531 155.367188 L 232.414062 155.398438 C 232.414062 155.398438 232.335938 155.429688 232.199219 155.484375 C 232.132812 155.515625 232.050781 155.539062 231.953125 155.558594 C 231.855469 155.585938 231.746094 155.617188 231.625 155.632812 C 231.503906 155.652344 231.371094 155.675781 231.230469 155.6875 C 231.089844 155.703125 230.945312 155.714844 230.792969 155.71875 C 230.640625 155.730469 230.480469 155.734375 230.320312 155.730469 C 230.160156 155.734375 229.996094 155.730469 229.835938 155.722656 C 228.53125 155.679688 227.25 155.453125 227.25 155.453125 C 227.25 155.453125 228.535156 155.65625 229.835938 155.675781 C 230 155.675781 230.160156 155.679688 230.320312 155.671875 C 230.480469 155.671875 230.636719 155.664062 230.789062 155.652344 C 230.9375 155.644531 231.085938 155.628906 231.222656 155.609375 C 231.359375 155.597656 231.488281 155.570312 231.609375 155.550781 C 231.726562 155.53125 231.832031 155.5 231.929688 155.472656 C 232.023438 155.449219 232.105469 155.425781 232.167969 155.394531 C 232.230469 155.367188 232.277344 155.347656 232.3125 155.335938 C 232.285156 155.324219 232.257812 155.3125 232.234375 155.304688 C 231.320312 154.9375 230.480469 154.53125 229.726562 154.117188 C 228.222656 153.28125 227.085938 152.398438 226.332031 151.742188 C 225.582031 151.082031 225.210938 150.644531 225.210938 150.644531 C 225.210938 150.644531 225.589844 151.070312 226.359375 151.710938 C 227.121094 152.355469 228.28125 153.195312 229.785156 154.011719 C 229.964844 154.109375 230.148438 154.203125 230.339844 154.296875 C 230.332031 154.265625 230.324219 154.226562 230.3125 154.175781 C 230.292969 154.101562 230.277344 154.015625 230.238281 153.914062 C 230.203125 153.816406 230.167969 153.703125 230.117188 153.582031 C 230.0625 153.464844 230.007812 153.335938 229.941406 153.199219 C 229.871094 153.070312 229.800781 152.929688 229.71875 152.789062 C 229.628906 152.652344 229.546875 152.503906 229.449219 152.363281 C 229.351562 152.222656 229.257812 152.074219 229.152344 151.9375 C 228.945312 151.652344 228.726562 151.382812 228.515625 151.132812 C 228.304688 150.882812 228.097656 150.65625 227.917969 150.464844 C 227.558594 150.085938 227.300781 149.847656 227.300781 149.847656 C 227.300781 149.847656 227.5625 150.082031 227.929688 150.457031 C 228.113281 150.644531 228.320312 150.867188 228.539062 151.113281 C 228.753906 151.359375 228.980469 151.625 229.191406 151.90625 C 229.300781 152.042969 229.398438 152.1875 229.5 152.328125 C 229.597656 152.46875 229.683594 152.617188 229.773438 152.753906 C 229.863281 152.894531 229.933594 153.035156 230.011719 153.164062 C 230.082031 153.300781 230.136719 153.429688 230.195312 153.550781 C 230.25 153.671875 230.285156 153.785156 230.324219 153.886719 C 230.363281 153.988281 230.386719 154.078125 230.402344 154.152344 C 230.425781 154.25 230.441406 154.316406 230.453125 154.355469 C 231.828125 155.03125 233.449219 155.644531 235.226562 156.070312 C 235.363281 156.101562 235.503906 156.132812 235.640625 156.160156 C 235.628906 156.058594 235.59375 155.792969 235.503906 155.4375 C 235.476562 155.324219 235.441406 155.199219 235.40625 155.070312 C 235.367188 154.941406 235.320312 154.804688 235.273438 154.667969 C 235.21875 154.53125 235.167969 154.386719 235.101562 154.246094 C 235.039062 154.101562 234.976562 153.960938 234.902344 153.820312 L 234.792969 153.613281 C 234.75 153.546875 234.710938 153.476562 234.671875 153.410156 C 234.59375 153.277344 234.503906 153.152344 234.421875 153.03125 C 234.339844 152.90625 234.246094 152.800781 234.160156 152.695312 C 234.117188 152.640625 234.078125 152.589844 234.035156 152.539062 C 233.992188 152.496094 233.949219 152.449219 233.910156 152.40625 C 233.828125 152.320312 233.753906 152.242188 233.683594 152.175781 C 233.613281 152.109375 233.550781 152.054688 233.496094 152.011719 C 233.394531 151.917969 233.335938 151.867188 233.335938 151.867188 C 233.335938 151.867188 233.394531 151.917969 233.5 152.007812 C 233.554688 152.050781 233.617188 152.105469 233.691406 152.167969 C 233.761719 152.234375 233.835938 152.3125 233.921875 152.394531 C 233.960938 152.4375 234.003906 152.484375 234.050781 152.527344 C 234.09375 152.578125 234.136719 152.628906 234.179688 152.679688 C 234.265625 152.78125 234.363281 152.890625 234.445312 153.011719 C 234.53125 153.132812 234.625 153.257812 234.703125 153.390625 C 234.746094 153.457031 234.789062 153.523438 234.828125 153.589844 L 234.945312 153.796875 C 235.023438 153.9375 235.089844 154.078125 235.15625 154.222656 C 235.226562 154.359375 235.277344 154.503906 235.335938 154.644531 C 235.386719 154.78125 235.4375 154.917969 235.476562 155.046875 C 235.519531 155.175781 235.558594 155.300781 235.585938 155.417969 C 235.695312 155.824219 235.734375 156.121094 235.742188 156.183594 C 236.625 156.371094 237.539062 156.511719 238.472656 156.597656 C 238.75 156.617188 239.027344 156.644531 239.3125 156.65625 C 239.515625 156.664062 239.722656 156.671875 239.925781 156.683594 C 239.929688 156.675781 239.929688 156.671875 239.933594 156.667969 C 239.945312 156.632812 239.957031 156.582031 239.976562 156.515625 C 239.988281 156.445312 240.007812 156.363281 240.019531 156.265625 C 240.035156 156.167969 240.035156 156.058594 240.042969 155.9375 C 240.035156 155.820312 240.039062 155.6875 240.015625 155.550781 C 240.007812 155.414062 239.972656 155.269531 239.941406 155.125 C 239.902344 154.976562 239.855469 154.828125 239.800781 154.679688 C 239.734375 154.535156 239.679688 154.382812 239.597656 154.242188 C 239.519531 154.101562 239.445312 153.957031 239.351562 153.828125 C 239.265625 153.695312 239.179688 153.558594 239.082031 153.445312 C 238.984375 153.328125 238.898438 153.210938 238.800781 153.109375 C 238.703125 153.007812 238.613281 152.914062 238.527344 152.824219 C 238.445312 152.734375 238.363281 152.660156 238.289062 152.59375 C 238.214844 152.527344 238.148438 152.472656 238.097656 152.425781 C 237.992188 152.328125 237.929688 152.277344 237.929688 152.277344 C 237.929688 152.277344 237.992188 152.328125 238.097656 152.421875 C 238.152344 152.46875 238.21875 152.523438 238.292969 152.589844 C 238.371094 152.652344 238.457031 152.722656 238.539062 152.8125 C 238.625 152.898438 238.71875 152.992188 238.816406 153.09375 C 238.914062 153.191406 239.003906 153.3125 239.105469 153.425781 C 239.207031 153.539062 239.292969 153.671875 239.386719 153.804688 C 239.484375 153.933594 239.5625 154.078125 239.640625 154.21875 C 239.730469 154.359375 239.785156 154.511719 239.855469 154.65625 C 239.914062 154.808594 239.964844 154.960938 240.007812 155.105469 C 240.042969 155.257812 240.078125 155.402344 240.09375 155.542969 C 240.117188 155.679688 240.117188 155.816406 240.125 155.9375 C 240.121094 156.0625 240.121094 156.175781 240.109375 156.277344 C 240.097656 156.375 240.082031 156.464844 240.066406 156.535156 C 240.050781 156.597656 240.039062 156.648438 240.027344 156.6875 C 240.074219 156.6875 240.117188 156.691406 240.160156 156.691406 C 240.734375 156.710938 241.308594 156.765625 241.875 156.847656 C 243.414062 157.070312 244.90625 157.519531 246.300781 158.09375 C 246.3125 158.046875 246.328125 157.972656 246.34375 157.867188 C 246.371094 157.679688 246.40625 157.417969 246.414062 157.097656 C 246.425781 156.777344 246.410156 156.402344 246.351562 156.003906 C 246.324219 155.808594 246.28125 155.601562 246.226562 155.398438 C 246.175781 155.195312 246.105469 154.996094 246.027344 154.796875 C 245.945312 154.597656 245.855469 154.40625 245.75 154.222656 C 245.644531 154.039062 245.53125 153.867188 245.40625 153.707031 C 245.34375 153.628906 245.285156 153.550781 245.21875 153.480469 C 245.152344 153.40625 245.09375 153.335938 245.023438 153.273438 C 244.898438 153.136719 244.761719 153.027344 244.640625 152.921875 C 244.515625 152.824219 244.398438 152.730469 244.289062 152.660156 C 244.179688 152.589844 244.089844 152.519531 244.003906 152.476562 C 243.839844 152.382812 243.75 152.328125 243.75 152.328125 C 243.75 152.328125 243.84375 152.382812 244.007812 152.472656 C 244.089844 152.515625 244.183594 152.582031 244.296875 152.652344 C 244.40625 152.71875 244.523438 152.8125 244.652344 152.910156 C 244.777344 153.011719 244.910156 153.125 245.042969 153.253906 C 245.109375 153.316406 245.171875 153.390625 245.238281 153.460938 C 245.304688 153.53125 245.367188 153.609375 245.429688 153.6875 C 245.558594 153.84375 245.675781 154.019531 245.78125 154.203125 C 245.890625 154.382812 245.988281 154.578125 246.074219 154.777344 C 246.152344 154.976562 246.230469 155.179688 246.285156 155.382812 C 246.34375 155.589844 246.386719 155.792969 246.417969 155.996094 C 246.484375 156.394531 246.503906 156.773438 246.496094 157.097656 C 246.488281 157.628906 246.417969 158.007812 246.394531 158.132812 C 247.03125 158.398438 247.644531 158.6875 248.234375 158.996094 C 249.464844 159.640625 250.582031 160.351562 251.585938 161.066406 C 251.605469 160.960938 251.636719 160.796875 251.664062 160.589844 C 251.683594 160.40625 251.710938 160.191406 251.71875 159.960938 C 251.734375 159.730469 251.734375 159.484375 251.722656 159.238281 C 251.714844 159.113281 251.707031 158.992188 251.695312 158.871094 C 251.675781 158.753906 251.667969 158.632812 251.640625 158.519531 C 251.617188 158.40625 251.601562 158.292969 251.570312 158.195312 C 251.539062 158.09375 251.519531 157.992188 251.484375 157.90625 C 251.453125 157.820312 251.421875 157.742188 251.394531 157.671875 C 251.367188 157.601562 251.335938 157.542969 251.3125 157.496094 C 251.261719 157.398438 251.234375 157.34375 251.234375 157.34375 C 251.234375 157.34375 251.265625 157.394531 251.316406 157.492188 C 251.34375 157.539062 251.378906 157.59375 251.410156 157.664062 C 251.441406 157.734375 251.472656 157.8125 251.511719 157.898438 C 251.546875 157.984375 251.574219 158.082031 251.609375 158.183594 C 251.644531 158.285156 251.664062 158.394531 251.695312 158.507812 C 251.726562 158.621094 251.738281 158.742188 251.761719 158.863281 C 251.78125 158.984375 251.792969 159.109375 251.808594 159.230469 C 251.828125 159.480469 251.839844 159.730469 251.835938 159.964844 C 251.835938 160.199219 251.820312 160.417969 251.804688 160.605469 C 251.78125 160.875 251.75 161.082031 251.734375 161.171875 C 252.226562 161.527344 252.691406 161.882812 253.125 162.226562 C 253.792969 162.761719 254.386719 163.28125 254.898438 163.75 C 255.414062 164.222656 255.847656 164.648438 256.199219 165.003906 " fill-opacity="1" fill-rule="nonzero"/></svg>